;Layer: Drill PTH
;EasyEDA v6.2.46, 2019-12-17T13:03:00+00:00
;0172e0994fd644d79e33dd8747f588b4,932ed04fcfe14a16a0103060ae18c599,10
;Gerber Generator version 0.2
M48
METRIC,LZ,000.000
;Holesize 1 = 0.712 METRIC
T01C0.712
;Holesize 2 = 0.889 METRIC
T02C0.889
;Holesize 3 = 0.915 METRIC
T03C0.915
;Holesize 4 = 1.101 METRIC
T04C1.101
%
G05
G90
T01
X+034925Y+034900
X+034925Y+037440
X+034925Y+039980
T02
X+032385Y+018263
X+034925Y+018263
T03
X+003177Y+047471
X+028575Y+044933
X+003177Y+050011
X+003177Y+052551
X+003177Y+055091
X+003177Y+057631
X+003177Y+060171
X+003177Y+062711
X+003177Y+044931
X+003177Y+042391
X+003177Y+039851
X+003177Y+037311
X+003177Y+034771
X+003177Y+032231
X+028575Y+042393
X+028575Y+039853
X+028575Y+037313
X+028575Y+034773
X+028575Y+032233
X+028575Y+029693
X+028575Y+047473
X+028575Y+050013
X+028575Y+052553
X+028575Y+055093
X+028575Y+057633
X+028575Y+060173
X+003175Y+029693
X+003175Y+027153
X+028575Y+027153
X+028575Y+062713
X+035582Y+068174
X+035582Y+065634
X+035582Y+063094
X+035582Y+060554
X+035582Y+058014
X+035582Y+055474
X+060938Y+065380
X+060938Y+062840
X+060938Y+060300
X+060938Y+057760
T04
X+044069Y+039980
X+044069Y+037440
X+044069Y+034900
X+044069Y+032360
M30
