G04 Layer: TopLayer*
G04 EasyEDA v6.2.46, 2019-12-17T13:03:00+00:00*
G04 0172e0994fd644d79e33dd8747f588b4,932ed04fcfe14a16a0103060ae18c599,10*
G04 Gerber Generator version 0.2*
G04 Scale: 100 percent, Rotated: No, Reflected: No *
G04 Dimensions in millimeters *
G04 leading zeros omitted , absolute positions ,3 integer and 3 decimal *
%FSLAX33Y33*%
%MOMM*%
G90*
G71D02*

%ADD11R,1.699997X1.699997*%
%ADD12C,1.699997*%
%ADD13R,1.574800X1.574800*%
%ADD14C,1.574800*%
%ADD15R,1.524000X1.524000*%
%ADD16C,1.499997*%

%LPD*%
G54D11*
G01X44069Y39980D03*
G54D12*
G01X44069Y37440D03*
G01X44069Y34900D03*
G01X44069Y32360D03*
G54D13*
G01X32385Y18263D03*
G54D14*
G01X34925Y18263D03*
G54D15*
G01X3177Y47471D03*
G01X28575Y44933D03*
G01X3177Y50011D03*
G01X3177Y52551D03*
G01X3177Y55091D03*
G01X3177Y57631D03*
G01X3177Y60171D03*
G01X3177Y62711D03*
G01X3177Y44931D03*
G01X3177Y42391D03*
G01X3177Y39851D03*
G01X3177Y37311D03*
G01X3177Y34771D03*
G01X3177Y32231D03*
G01X28575Y42393D03*
G01X28575Y39853D03*
G01X28575Y37313D03*
G01X28575Y34773D03*
G01X28575Y32233D03*
G01X28575Y29693D03*
G01X28575Y47473D03*
G01X28575Y50013D03*
G01X28575Y52553D03*
G01X28575Y55093D03*
G01X28575Y57633D03*
G01X28575Y60173D03*
G01X3175Y29693D03*
G01X3175Y27153D03*
G01X28575Y27153D03*
G01X28575Y62713D03*
G54D16*
G01X34925Y34900D03*
G01X34925Y37440D03*
G01X34925Y39980D03*
G36*
G01X35563Y67274D02*
G01X35525Y67276D01*
G01X35487Y67279D01*
G01X35449Y67285D01*
G01X35412Y67293D01*
G01X35375Y67302D01*
G01X35339Y67313D01*
G01X35303Y67326D01*
G01X35268Y67341D01*
G01X35234Y67357D01*
G01X35201Y67376D01*
G01X35168Y67395D01*
G01X35137Y67417D01*
G01X35106Y67440D01*
G01X35077Y67464D01*
G01X35050Y67490D01*
G01X35023Y67517D01*
G01X34998Y67546D01*
G01X34974Y67575D01*
G01X34952Y67606D01*
G01X34931Y67638D01*
G01X34912Y67671D01*
G01X34895Y67705D01*
G01X34879Y67740D01*
G01X34866Y67775D01*
G01X34853Y67811D01*
G01X34843Y67847D01*
G01X34835Y67885D01*
G01X34828Y67922D01*
G01X34823Y67960D01*
G01X34821Y67998D01*
G01X34820Y68036D01*
G01X34820Y68312D01*
G01X34821Y68349D01*
G01X34823Y68387D01*
G01X34828Y68425D01*
G01X34835Y68462D01*
G01X34843Y68500D01*
G01X34853Y68536D01*
G01X34866Y68572D01*
G01X34879Y68607D01*
G01X34895Y68642D01*
G01X34912Y68676D01*
G01X34931Y68709D01*
G01X34952Y68741D01*
G01X34974Y68772D01*
G01X34998Y68801D01*
G01X35023Y68830D01*
G01X35050Y68857D01*
G01X35077Y68883D01*
G01X35106Y68907D01*
G01X35137Y68930D01*
G01X35168Y68952D01*
G01X35201Y68971D01*
G01X35234Y68990D01*
G01X35268Y69006D01*
G01X35303Y69021D01*
G01X35339Y69034D01*
G01X35375Y69045D01*
G01X35412Y69054D01*
G01X35449Y69062D01*
G01X35487Y69068D01*
G01X35525Y69071D01*
G01X35563Y69073D01*
G01X35601Y69073D01*
G01X35639Y69071D01*
G01X35676Y69068D01*
G01X35714Y69062D01*
G01X35751Y69054D01*
G01X35788Y69045D01*
G01X35824Y69034D01*
G01X35860Y69021D01*
G01X35895Y69006D01*
G01X35929Y68990D01*
G01X35963Y68971D01*
G01X35995Y68952D01*
G01X36026Y68930D01*
G01X36057Y68907D01*
G01X36086Y68883D01*
G01X36114Y68857D01*
G01X36140Y68830D01*
G01X36165Y68801D01*
G01X36189Y68772D01*
G01X36211Y68741D01*
G01X36232Y68709D01*
G01X36251Y68676D01*
G01X36268Y68642D01*
G01X36284Y68607D01*
G01X36298Y68572D01*
G01X36310Y68536D01*
G01X36320Y68500D01*
G01X36328Y68462D01*
G01X36335Y68425D01*
G01X36340Y68387D01*
G01X36343Y68349D01*
G01X36344Y68312D01*
G01X36344Y68036D01*
G01X36343Y67998D01*
G01X36340Y67960D01*
G01X36335Y67922D01*
G01X36328Y67885D01*
G01X36320Y67847D01*
G01X36310Y67811D01*
G01X36298Y67775D01*
G01X36284Y67740D01*
G01X36268Y67705D01*
G01X36251Y67671D01*
G01X36232Y67638D01*
G01X36211Y67606D01*
G01X36189Y67575D01*
G01X36165Y67546D01*
G01X36140Y67517D01*
G01X36114Y67490D01*
G01X36086Y67464D01*
G01X36057Y67440D01*
G01X36026Y67417D01*
G01X35995Y67395D01*
G01X35963Y67376D01*
G01X35929Y67357D01*
G01X35895Y67341D01*
G01X35860Y67326D01*
G01X35824Y67313D01*
G01X35788Y67302D01*
G01X35751Y67293D01*
G01X35714Y67285D01*
G01X35676Y67279D01*
G01X35639Y67276D01*
G01X35601Y67274D01*
G01X35563Y67274D01*
G37*
G36*
G01X35563Y64734D02*
G01X35525Y64736D01*
G01X35487Y64739D01*
G01X35449Y64745D01*
G01X35412Y64753D01*
G01X35375Y64762D01*
G01X35339Y64773D01*
G01X35303Y64786D01*
G01X35268Y64801D01*
G01X35234Y64817D01*
G01X35201Y64836D01*
G01X35168Y64855D01*
G01X35137Y64877D01*
G01X35106Y64900D01*
G01X35077Y64924D01*
G01X35050Y64950D01*
G01X35023Y64977D01*
G01X34998Y65006D01*
G01X34974Y65035D01*
G01X34952Y65066D01*
G01X34931Y65098D01*
G01X34912Y65131D01*
G01X34895Y65165D01*
G01X34879Y65200D01*
G01X34866Y65235D01*
G01X34853Y65271D01*
G01X34843Y65307D01*
G01X34835Y65345D01*
G01X34828Y65382D01*
G01X34823Y65420D01*
G01X34821Y65458D01*
G01X34820Y65496D01*
G01X34820Y65772D01*
G01X34821Y65809D01*
G01X34823Y65847D01*
G01X34828Y65885D01*
G01X34835Y65922D01*
G01X34843Y65960D01*
G01X34853Y65996D01*
G01X34866Y66032D01*
G01X34879Y66067D01*
G01X34895Y66102D01*
G01X34912Y66136D01*
G01X34931Y66169D01*
G01X34952Y66201D01*
G01X34974Y66232D01*
G01X34998Y66261D01*
G01X35023Y66290D01*
G01X35050Y66317D01*
G01X35077Y66343D01*
G01X35106Y66367D01*
G01X35137Y66390D01*
G01X35168Y66412D01*
G01X35201Y66431D01*
G01X35234Y66450D01*
G01X35268Y66466D01*
G01X35303Y66481D01*
G01X35339Y66494D01*
G01X35375Y66505D01*
G01X35412Y66514D01*
G01X35449Y66522D01*
G01X35487Y66528D01*
G01X35525Y66531D01*
G01X35563Y66533D01*
G01X35601Y66533D01*
G01X35639Y66531D01*
G01X35676Y66528D01*
G01X35714Y66522D01*
G01X35751Y66514D01*
G01X35788Y66505D01*
G01X35824Y66494D01*
G01X35860Y66481D01*
G01X35895Y66466D01*
G01X35929Y66450D01*
G01X35963Y66431D01*
G01X35995Y66412D01*
G01X36026Y66390D01*
G01X36057Y66367D01*
G01X36086Y66343D01*
G01X36114Y66317D01*
G01X36140Y66290D01*
G01X36165Y66261D01*
G01X36189Y66232D01*
G01X36211Y66201D01*
G01X36232Y66169D01*
G01X36251Y66136D01*
G01X36268Y66102D01*
G01X36284Y66067D01*
G01X36298Y66032D01*
G01X36310Y65996D01*
G01X36320Y65960D01*
G01X36328Y65922D01*
G01X36335Y65885D01*
G01X36340Y65847D01*
G01X36343Y65809D01*
G01X36344Y65772D01*
G01X36344Y65496D01*
G01X36343Y65458D01*
G01X36340Y65420D01*
G01X36335Y65382D01*
G01X36328Y65345D01*
G01X36320Y65307D01*
G01X36310Y65271D01*
G01X36298Y65235D01*
G01X36284Y65200D01*
G01X36268Y65165D01*
G01X36251Y65131D01*
G01X36232Y65098D01*
G01X36211Y65066D01*
G01X36189Y65035D01*
G01X36165Y65006D01*
G01X36140Y64977D01*
G01X36114Y64950D01*
G01X36086Y64924D01*
G01X36057Y64900D01*
G01X36026Y64877D01*
G01X35995Y64855D01*
G01X35963Y64836D01*
G01X35929Y64817D01*
G01X35895Y64801D01*
G01X35860Y64786D01*
G01X35824Y64773D01*
G01X35788Y64762D01*
G01X35751Y64753D01*
G01X35714Y64745D01*
G01X35676Y64739D01*
G01X35639Y64736D01*
G01X35601Y64734D01*
G01X35563Y64734D01*
G37*
G36*
G01X35563Y62194D02*
G01X35525Y62196D01*
G01X35487Y62199D01*
G01X35449Y62205D01*
G01X35412Y62213D01*
G01X35375Y62222D01*
G01X35339Y62233D01*
G01X35303Y62246D01*
G01X35268Y62261D01*
G01X35234Y62277D01*
G01X35201Y62296D01*
G01X35168Y62315D01*
G01X35137Y62337D01*
G01X35106Y62360D01*
G01X35077Y62384D01*
G01X35050Y62410D01*
G01X35023Y62437D01*
G01X34998Y62466D01*
G01X34974Y62495D01*
G01X34952Y62526D01*
G01X34931Y62558D01*
G01X34912Y62591D01*
G01X34895Y62625D01*
G01X34879Y62660D01*
G01X34866Y62695D01*
G01X34853Y62731D01*
G01X34843Y62767D01*
G01X34835Y62805D01*
G01X34828Y62842D01*
G01X34823Y62880D01*
G01X34821Y62918D01*
G01X34820Y62956D01*
G01X34820Y63232D01*
G01X34821Y63269D01*
G01X34823Y63307D01*
G01X34828Y63345D01*
G01X34835Y63382D01*
G01X34843Y63420D01*
G01X34853Y63456D01*
G01X34866Y63492D01*
G01X34879Y63527D01*
G01X34895Y63562D01*
G01X34912Y63596D01*
G01X34931Y63629D01*
G01X34952Y63661D01*
G01X34974Y63692D01*
G01X34998Y63721D01*
G01X35023Y63750D01*
G01X35050Y63777D01*
G01X35077Y63803D01*
G01X35106Y63827D01*
G01X35137Y63850D01*
G01X35168Y63872D01*
G01X35201Y63891D01*
G01X35234Y63910D01*
G01X35268Y63926D01*
G01X35303Y63941D01*
G01X35339Y63954D01*
G01X35375Y63965D01*
G01X35412Y63974D01*
G01X35449Y63982D01*
G01X35487Y63988D01*
G01X35525Y63991D01*
G01X35563Y63993D01*
G01X35601Y63993D01*
G01X35639Y63991D01*
G01X35676Y63988D01*
G01X35714Y63982D01*
G01X35751Y63974D01*
G01X35788Y63965D01*
G01X35824Y63954D01*
G01X35860Y63941D01*
G01X35895Y63926D01*
G01X35929Y63910D01*
G01X35963Y63891D01*
G01X35995Y63872D01*
G01X36026Y63850D01*
G01X36057Y63827D01*
G01X36086Y63803D01*
G01X36114Y63777D01*
G01X36140Y63750D01*
G01X36165Y63721D01*
G01X36189Y63692D01*
G01X36211Y63661D01*
G01X36232Y63629D01*
G01X36251Y63596D01*
G01X36268Y63562D01*
G01X36284Y63527D01*
G01X36298Y63492D01*
G01X36310Y63456D01*
G01X36320Y63420D01*
G01X36328Y63382D01*
G01X36335Y63345D01*
G01X36340Y63307D01*
G01X36343Y63269D01*
G01X36344Y63232D01*
G01X36344Y62956D01*
G01X36343Y62918D01*
G01X36340Y62880D01*
G01X36335Y62842D01*
G01X36328Y62805D01*
G01X36320Y62767D01*
G01X36310Y62731D01*
G01X36298Y62695D01*
G01X36284Y62660D01*
G01X36268Y62625D01*
G01X36251Y62591D01*
G01X36232Y62558D01*
G01X36211Y62526D01*
G01X36189Y62495D01*
G01X36165Y62466D01*
G01X36140Y62437D01*
G01X36114Y62410D01*
G01X36086Y62384D01*
G01X36057Y62360D01*
G01X36026Y62337D01*
G01X35995Y62315D01*
G01X35963Y62296D01*
G01X35929Y62277D01*
G01X35895Y62261D01*
G01X35860Y62246D01*
G01X35824Y62233D01*
G01X35788Y62222D01*
G01X35751Y62213D01*
G01X35714Y62205D01*
G01X35676Y62199D01*
G01X35639Y62196D01*
G01X35601Y62194D01*
G01X35563Y62194D01*
G37*
G36*
G01X35563Y59654D02*
G01X35525Y59656D01*
G01X35487Y59659D01*
G01X35449Y59665D01*
G01X35412Y59673D01*
G01X35375Y59682D01*
G01X35339Y59693D01*
G01X35303Y59706D01*
G01X35268Y59721D01*
G01X35234Y59737D01*
G01X35201Y59756D01*
G01X35168Y59775D01*
G01X35137Y59797D01*
G01X35106Y59820D01*
G01X35077Y59844D01*
G01X35050Y59870D01*
G01X35023Y59897D01*
G01X34998Y59926D01*
G01X34974Y59955D01*
G01X34952Y59986D01*
G01X34931Y60018D01*
G01X34912Y60051D01*
G01X34895Y60085D01*
G01X34879Y60120D01*
G01X34866Y60155D01*
G01X34853Y60191D01*
G01X34843Y60227D01*
G01X34835Y60265D01*
G01X34828Y60302D01*
G01X34823Y60340D01*
G01X34821Y60378D01*
G01X34820Y60416D01*
G01X34820Y60692D01*
G01X34821Y60729D01*
G01X34823Y60767D01*
G01X34828Y60805D01*
G01X34835Y60842D01*
G01X34843Y60880D01*
G01X34853Y60916D01*
G01X34866Y60952D01*
G01X34879Y60987D01*
G01X34895Y61022D01*
G01X34912Y61056D01*
G01X34931Y61089D01*
G01X34952Y61121D01*
G01X34974Y61152D01*
G01X34998Y61181D01*
G01X35023Y61210D01*
G01X35050Y61237D01*
G01X35077Y61263D01*
G01X35106Y61287D01*
G01X35137Y61310D01*
G01X35168Y61332D01*
G01X35201Y61351D01*
G01X35234Y61370D01*
G01X35268Y61386D01*
G01X35303Y61401D01*
G01X35339Y61414D01*
G01X35375Y61425D01*
G01X35412Y61434D01*
G01X35449Y61442D01*
G01X35487Y61448D01*
G01X35525Y61451D01*
G01X35563Y61453D01*
G01X35601Y61453D01*
G01X35639Y61451D01*
G01X35676Y61448D01*
G01X35714Y61442D01*
G01X35751Y61434D01*
G01X35788Y61425D01*
G01X35824Y61414D01*
G01X35860Y61401D01*
G01X35895Y61386D01*
G01X35929Y61370D01*
G01X35963Y61351D01*
G01X35995Y61332D01*
G01X36026Y61310D01*
G01X36057Y61287D01*
G01X36086Y61263D01*
G01X36114Y61237D01*
G01X36140Y61210D01*
G01X36165Y61181D01*
G01X36189Y61152D01*
G01X36211Y61121D01*
G01X36232Y61089D01*
G01X36251Y61056D01*
G01X36268Y61022D01*
G01X36284Y60987D01*
G01X36298Y60952D01*
G01X36310Y60916D01*
G01X36320Y60880D01*
G01X36328Y60842D01*
G01X36335Y60805D01*
G01X36340Y60767D01*
G01X36343Y60729D01*
G01X36344Y60692D01*
G01X36344Y60416D01*
G01X36343Y60378D01*
G01X36340Y60340D01*
G01X36335Y60302D01*
G01X36328Y60265D01*
G01X36320Y60227D01*
G01X36310Y60191D01*
G01X36298Y60155D01*
G01X36284Y60120D01*
G01X36268Y60085D01*
G01X36251Y60051D01*
G01X36232Y60018D01*
G01X36211Y59986D01*
G01X36189Y59955D01*
G01X36165Y59926D01*
G01X36140Y59897D01*
G01X36114Y59870D01*
G01X36086Y59844D01*
G01X36057Y59820D01*
G01X36026Y59797D01*
G01X35995Y59775D01*
G01X35963Y59756D01*
G01X35929Y59737D01*
G01X35895Y59721D01*
G01X35860Y59706D01*
G01X35824Y59693D01*
G01X35788Y59682D01*
G01X35751Y59673D01*
G01X35714Y59665D01*
G01X35676Y59659D01*
G01X35639Y59656D01*
G01X35601Y59654D01*
G01X35563Y59654D01*
G37*
G36*
G01X35563Y57114D02*
G01X35525Y57116D01*
G01X35487Y57119D01*
G01X35449Y57125D01*
G01X35412Y57133D01*
G01X35375Y57142D01*
G01X35339Y57153D01*
G01X35303Y57166D01*
G01X35268Y57181D01*
G01X35234Y57197D01*
G01X35201Y57216D01*
G01X35168Y57235D01*
G01X35137Y57257D01*
G01X35106Y57280D01*
G01X35077Y57304D01*
G01X35050Y57330D01*
G01X35023Y57357D01*
G01X34998Y57386D01*
G01X34974Y57415D01*
G01X34952Y57446D01*
G01X34931Y57478D01*
G01X34912Y57511D01*
G01X34895Y57545D01*
G01X34879Y57580D01*
G01X34866Y57615D01*
G01X34853Y57651D01*
G01X34843Y57687D01*
G01X34835Y57725D01*
G01X34828Y57762D01*
G01X34823Y57800D01*
G01X34821Y57838D01*
G01X34820Y57876D01*
G01X34820Y58152D01*
G01X34821Y58189D01*
G01X34823Y58227D01*
G01X34828Y58265D01*
G01X34835Y58302D01*
G01X34843Y58340D01*
G01X34853Y58376D01*
G01X34866Y58412D01*
G01X34879Y58447D01*
G01X34895Y58482D01*
G01X34912Y58516D01*
G01X34931Y58549D01*
G01X34952Y58581D01*
G01X34974Y58612D01*
G01X34998Y58641D01*
G01X35023Y58670D01*
G01X35050Y58697D01*
G01X35077Y58723D01*
G01X35106Y58747D01*
G01X35137Y58770D01*
G01X35168Y58792D01*
G01X35201Y58811D01*
G01X35234Y58830D01*
G01X35268Y58846D01*
G01X35303Y58861D01*
G01X35339Y58874D01*
G01X35375Y58885D01*
G01X35412Y58894D01*
G01X35449Y58902D01*
G01X35487Y58908D01*
G01X35525Y58911D01*
G01X35563Y58913D01*
G01X35601Y58913D01*
G01X35639Y58911D01*
G01X35676Y58908D01*
G01X35714Y58902D01*
G01X35751Y58894D01*
G01X35788Y58885D01*
G01X35824Y58874D01*
G01X35860Y58861D01*
G01X35895Y58846D01*
G01X35929Y58830D01*
G01X35963Y58811D01*
G01X35995Y58792D01*
G01X36026Y58770D01*
G01X36057Y58747D01*
G01X36086Y58723D01*
G01X36114Y58697D01*
G01X36140Y58670D01*
G01X36165Y58641D01*
G01X36189Y58612D01*
G01X36211Y58581D01*
G01X36232Y58549D01*
G01X36251Y58516D01*
G01X36268Y58482D01*
G01X36284Y58447D01*
G01X36298Y58412D01*
G01X36310Y58376D01*
G01X36320Y58340D01*
G01X36328Y58302D01*
G01X36335Y58265D01*
G01X36340Y58227D01*
G01X36343Y58189D01*
G01X36344Y58152D01*
G01X36344Y57876D01*
G01X36343Y57838D01*
G01X36340Y57800D01*
G01X36335Y57762D01*
G01X36328Y57725D01*
G01X36320Y57687D01*
G01X36310Y57651D01*
G01X36298Y57615D01*
G01X36284Y57580D01*
G01X36268Y57545D01*
G01X36251Y57511D01*
G01X36232Y57478D01*
G01X36211Y57446D01*
G01X36189Y57415D01*
G01X36165Y57386D01*
G01X36140Y57357D01*
G01X36114Y57330D01*
G01X36086Y57304D01*
G01X36057Y57280D01*
G01X36026Y57257D01*
G01X35995Y57235D01*
G01X35963Y57216D01*
G01X35929Y57197D01*
G01X35895Y57181D01*
G01X35860Y57166D01*
G01X35824Y57153D01*
G01X35788Y57142D01*
G01X35751Y57133D01*
G01X35714Y57125D01*
G01X35676Y57119D01*
G01X35639Y57116D01*
G01X35601Y57114D01*
G01X35563Y57114D01*
G37*
G36*
G01X35563Y54574D02*
G01X35525Y54576D01*
G01X35487Y54579D01*
G01X35449Y54585D01*
G01X35412Y54593D01*
G01X35375Y54602D01*
G01X35339Y54613D01*
G01X35303Y54626D01*
G01X35268Y54641D01*
G01X35234Y54657D01*
G01X35201Y54676D01*
G01X35168Y54695D01*
G01X35137Y54717D01*
G01X35106Y54740D01*
G01X35077Y54764D01*
G01X35050Y54790D01*
G01X35023Y54817D01*
G01X34998Y54846D01*
G01X34974Y54875D01*
G01X34952Y54906D01*
G01X34931Y54938D01*
G01X34912Y54971D01*
G01X34895Y55005D01*
G01X34879Y55040D01*
G01X34866Y55075D01*
G01X34853Y55111D01*
G01X34843Y55147D01*
G01X34835Y55185D01*
G01X34828Y55222D01*
G01X34823Y55260D01*
G01X34821Y55298D01*
G01X34820Y55336D01*
G01X34820Y55612D01*
G01X34821Y55649D01*
G01X34823Y55687D01*
G01X34828Y55725D01*
G01X34835Y55762D01*
G01X34843Y55800D01*
G01X34853Y55836D01*
G01X34866Y55872D01*
G01X34879Y55907D01*
G01X34895Y55942D01*
G01X34912Y55976D01*
G01X34931Y56009D01*
G01X34952Y56041D01*
G01X34974Y56072D01*
G01X34998Y56101D01*
G01X35023Y56130D01*
G01X35050Y56157D01*
G01X35077Y56183D01*
G01X35106Y56207D01*
G01X35137Y56230D01*
G01X35168Y56252D01*
G01X35201Y56271D01*
G01X35234Y56290D01*
G01X35268Y56306D01*
G01X35303Y56321D01*
G01X35339Y56334D01*
G01X35375Y56345D01*
G01X35412Y56354D01*
G01X35449Y56362D01*
G01X35487Y56368D01*
G01X35525Y56371D01*
G01X35563Y56373D01*
G01X35601Y56373D01*
G01X35639Y56371D01*
G01X35676Y56368D01*
G01X35714Y56362D01*
G01X35751Y56354D01*
G01X35788Y56345D01*
G01X35824Y56334D01*
G01X35860Y56321D01*
G01X35895Y56306D01*
G01X35929Y56290D01*
G01X35963Y56271D01*
G01X35995Y56252D01*
G01X36026Y56230D01*
G01X36057Y56207D01*
G01X36086Y56183D01*
G01X36114Y56157D01*
G01X36140Y56130D01*
G01X36165Y56101D01*
G01X36189Y56072D01*
G01X36211Y56041D01*
G01X36232Y56009D01*
G01X36251Y55976D01*
G01X36268Y55942D01*
G01X36284Y55907D01*
G01X36298Y55872D01*
G01X36310Y55836D01*
G01X36320Y55800D01*
G01X36328Y55762D01*
G01X36335Y55725D01*
G01X36340Y55687D01*
G01X36343Y55649D01*
G01X36344Y55612D01*
G01X36344Y55336D01*
G01X36343Y55298D01*
G01X36340Y55260D01*
G01X36335Y55222D01*
G01X36328Y55185D01*
G01X36320Y55147D01*
G01X36310Y55111D01*
G01X36298Y55075D01*
G01X36284Y55040D01*
G01X36268Y55005D01*
G01X36251Y54971D01*
G01X36232Y54938D01*
G01X36211Y54906D01*
G01X36189Y54875D01*
G01X36165Y54846D01*
G01X36140Y54817D01*
G01X36114Y54790D01*
G01X36086Y54764D01*
G01X36057Y54740D01*
G01X36026Y54717D01*
G01X35995Y54695D01*
G01X35963Y54676D01*
G01X35929Y54657D01*
G01X35895Y54641D01*
G01X35860Y54626D01*
G01X35824Y54613D01*
G01X35788Y54602D01*
G01X35751Y54593D01*
G01X35714Y54585D01*
G01X35676Y54579D01*
G01X35639Y54576D01*
G01X35601Y54574D01*
G01X35563Y54574D01*
G37*
G36*
G01X60919Y64480D02*
G01X60881Y64482D01*
G01X60843Y64485D01*
G01X60805Y64491D01*
G01X60768Y64499D01*
G01X60731Y64508D01*
G01X60695Y64519D01*
G01X60659Y64532D01*
G01X60624Y64547D01*
G01X60590Y64563D01*
G01X60557Y64582D01*
G01X60524Y64601D01*
G01X60493Y64623D01*
G01X60463Y64646D01*
G01X60433Y64670D01*
G01X60406Y64696D01*
G01X60379Y64723D01*
G01X60354Y64752D01*
G01X60330Y64781D01*
G01X60308Y64812D01*
G01X60287Y64844D01*
G01X60268Y64877D01*
G01X60251Y64911D01*
G01X60235Y64946D01*
G01X60222Y64981D01*
G01X60210Y65017D01*
G01X60199Y65053D01*
G01X60191Y65091D01*
G01X60184Y65128D01*
G01X60179Y65166D01*
G01X60177Y65204D01*
G01X60176Y65242D01*
G01X60176Y65518D01*
G01X60177Y65555D01*
G01X60179Y65593D01*
G01X60184Y65631D01*
G01X60191Y65668D01*
G01X60199Y65706D01*
G01X60210Y65742D01*
G01X60222Y65778D01*
G01X60235Y65813D01*
G01X60251Y65848D01*
G01X60268Y65882D01*
G01X60287Y65915D01*
G01X60308Y65947D01*
G01X60330Y65978D01*
G01X60354Y66007D01*
G01X60379Y66036D01*
G01X60406Y66063D01*
G01X60433Y66089D01*
G01X60463Y66113D01*
G01X60493Y66136D01*
G01X60524Y66158D01*
G01X60557Y66177D01*
G01X60590Y66196D01*
G01X60624Y66212D01*
G01X60659Y66227D01*
G01X60695Y66240D01*
G01X60731Y66251D01*
G01X60768Y66260D01*
G01X60805Y66268D01*
G01X60843Y66274D01*
G01X60881Y66277D01*
G01X60919Y66279D01*
G01X60957Y66279D01*
G01X60995Y66277D01*
G01X61032Y66274D01*
G01X61070Y66268D01*
G01X61107Y66260D01*
G01X61144Y66251D01*
G01X61180Y66240D01*
G01X61216Y66227D01*
G01X61251Y66212D01*
G01X61285Y66196D01*
G01X61319Y66177D01*
G01X61351Y66158D01*
G01X61382Y66136D01*
G01X61413Y66113D01*
G01X61442Y66089D01*
G01X61470Y66063D01*
G01X61496Y66036D01*
G01X61521Y66007D01*
G01X61545Y65978D01*
G01X61567Y65947D01*
G01X61588Y65915D01*
G01X61607Y65882D01*
G01X61624Y65848D01*
G01X61640Y65813D01*
G01X61654Y65778D01*
G01X61666Y65742D01*
G01X61676Y65706D01*
G01X61685Y65668D01*
G01X61691Y65631D01*
G01X61696Y65593D01*
G01X61699Y65555D01*
G01X61700Y65518D01*
G01X61700Y65242D01*
G01X61699Y65204D01*
G01X61696Y65166D01*
G01X61691Y65128D01*
G01X61685Y65091D01*
G01X61676Y65053D01*
G01X61666Y65017D01*
G01X61654Y64981D01*
G01X61640Y64946D01*
G01X61624Y64911D01*
G01X61607Y64877D01*
G01X61588Y64844D01*
G01X61567Y64812D01*
G01X61545Y64781D01*
G01X61521Y64752D01*
G01X61496Y64723D01*
G01X61470Y64696D01*
G01X61442Y64670D01*
G01X61413Y64646D01*
G01X61382Y64623D01*
G01X61351Y64601D01*
G01X61319Y64582D01*
G01X61285Y64563D01*
G01X61251Y64547D01*
G01X61216Y64532D01*
G01X61180Y64519D01*
G01X61144Y64508D01*
G01X61107Y64499D01*
G01X61070Y64491D01*
G01X61032Y64485D01*
G01X60995Y64482D01*
G01X60957Y64480D01*
G01X60919Y64480D01*
G37*
G36*
G01X60919Y61940D02*
G01X60881Y61942D01*
G01X60843Y61945D01*
G01X60805Y61951D01*
G01X60768Y61959D01*
G01X60731Y61968D01*
G01X60695Y61979D01*
G01X60659Y61992D01*
G01X60624Y62007D01*
G01X60590Y62023D01*
G01X60557Y62042D01*
G01X60524Y62061D01*
G01X60493Y62083D01*
G01X60463Y62106D01*
G01X60433Y62130D01*
G01X60406Y62156D01*
G01X60379Y62183D01*
G01X60354Y62212D01*
G01X60330Y62241D01*
G01X60308Y62272D01*
G01X60287Y62304D01*
G01X60268Y62337D01*
G01X60251Y62371D01*
G01X60235Y62406D01*
G01X60222Y62441D01*
G01X60210Y62477D01*
G01X60199Y62513D01*
G01X60191Y62551D01*
G01X60184Y62588D01*
G01X60179Y62626D01*
G01X60177Y62664D01*
G01X60176Y62702D01*
G01X60176Y62978D01*
G01X60177Y63015D01*
G01X60179Y63053D01*
G01X60184Y63091D01*
G01X60191Y63128D01*
G01X60199Y63166D01*
G01X60210Y63202D01*
G01X60222Y63238D01*
G01X60235Y63273D01*
G01X60251Y63308D01*
G01X60268Y63342D01*
G01X60287Y63375D01*
G01X60308Y63407D01*
G01X60330Y63438D01*
G01X60354Y63467D01*
G01X60379Y63496D01*
G01X60406Y63523D01*
G01X60433Y63549D01*
G01X60463Y63573D01*
G01X60493Y63596D01*
G01X60524Y63618D01*
G01X60557Y63637D01*
G01X60590Y63656D01*
G01X60624Y63672D01*
G01X60659Y63687D01*
G01X60695Y63700D01*
G01X60731Y63711D01*
G01X60768Y63720D01*
G01X60805Y63728D01*
G01X60843Y63734D01*
G01X60881Y63737D01*
G01X60919Y63739D01*
G01X60957Y63739D01*
G01X60995Y63737D01*
G01X61032Y63734D01*
G01X61070Y63728D01*
G01X61107Y63720D01*
G01X61144Y63711D01*
G01X61180Y63700D01*
G01X61216Y63687D01*
G01X61251Y63672D01*
G01X61285Y63656D01*
G01X61319Y63637D01*
G01X61351Y63618D01*
G01X61382Y63596D01*
G01X61413Y63573D01*
G01X61442Y63549D01*
G01X61470Y63523D01*
G01X61496Y63496D01*
G01X61521Y63467D01*
G01X61545Y63438D01*
G01X61567Y63407D01*
G01X61588Y63375D01*
G01X61607Y63342D01*
G01X61624Y63308D01*
G01X61640Y63273D01*
G01X61654Y63238D01*
G01X61666Y63202D01*
G01X61676Y63166D01*
G01X61685Y63128D01*
G01X61691Y63091D01*
G01X61696Y63053D01*
G01X61699Y63015D01*
G01X61700Y62978D01*
G01X61700Y62702D01*
G01X61699Y62664D01*
G01X61696Y62626D01*
G01X61691Y62588D01*
G01X61685Y62551D01*
G01X61676Y62513D01*
G01X61666Y62477D01*
G01X61654Y62441D01*
G01X61640Y62406D01*
G01X61624Y62371D01*
G01X61607Y62337D01*
G01X61588Y62304D01*
G01X61567Y62272D01*
G01X61545Y62241D01*
G01X61521Y62212D01*
G01X61496Y62183D01*
G01X61470Y62156D01*
G01X61442Y62130D01*
G01X61413Y62106D01*
G01X61382Y62083D01*
G01X61351Y62061D01*
G01X61319Y62042D01*
G01X61285Y62023D01*
G01X61251Y62007D01*
G01X61216Y61992D01*
G01X61180Y61979D01*
G01X61144Y61968D01*
G01X61107Y61959D01*
G01X61070Y61951D01*
G01X61032Y61945D01*
G01X60995Y61942D01*
G01X60957Y61940D01*
G01X60919Y61940D01*
G37*
G36*
G01X60919Y59400D02*
G01X60881Y59402D01*
G01X60843Y59405D01*
G01X60805Y59411D01*
G01X60768Y59419D01*
G01X60731Y59428D01*
G01X60695Y59439D01*
G01X60659Y59452D01*
G01X60624Y59467D01*
G01X60590Y59483D01*
G01X60557Y59502D01*
G01X60524Y59521D01*
G01X60493Y59543D01*
G01X60463Y59566D01*
G01X60433Y59590D01*
G01X60406Y59616D01*
G01X60379Y59643D01*
G01X60354Y59672D01*
G01X60330Y59701D01*
G01X60308Y59732D01*
G01X60287Y59764D01*
G01X60268Y59797D01*
G01X60251Y59831D01*
G01X60235Y59866D01*
G01X60222Y59901D01*
G01X60210Y59937D01*
G01X60199Y59973D01*
G01X60191Y60011D01*
G01X60184Y60048D01*
G01X60179Y60086D01*
G01X60177Y60124D01*
G01X60176Y60162D01*
G01X60176Y60438D01*
G01X60177Y60475D01*
G01X60179Y60513D01*
G01X60184Y60551D01*
G01X60191Y60588D01*
G01X60199Y60626D01*
G01X60210Y60662D01*
G01X60222Y60698D01*
G01X60235Y60733D01*
G01X60251Y60768D01*
G01X60268Y60802D01*
G01X60287Y60835D01*
G01X60308Y60867D01*
G01X60330Y60898D01*
G01X60354Y60927D01*
G01X60379Y60956D01*
G01X60406Y60983D01*
G01X60433Y61009D01*
G01X60463Y61033D01*
G01X60493Y61056D01*
G01X60524Y61078D01*
G01X60557Y61097D01*
G01X60590Y61116D01*
G01X60624Y61132D01*
G01X60659Y61147D01*
G01X60695Y61160D01*
G01X60731Y61171D01*
G01X60768Y61180D01*
G01X60805Y61188D01*
G01X60843Y61194D01*
G01X60881Y61197D01*
G01X60919Y61199D01*
G01X60957Y61199D01*
G01X60995Y61197D01*
G01X61032Y61194D01*
G01X61070Y61188D01*
G01X61107Y61180D01*
G01X61144Y61171D01*
G01X61180Y61160D01*
G01X61216Y61147D01*
G01X61251Y61132D01*
G01X61285Y61116D01*
G01X61319Y61097D01*
G01X61351Y61078D01*
G01X61382Y61056D01*
G01X61413Y61033D01*
G01X61442Y61009D01*
G01X61470Y60983D01*
G01X61496Y60956D01*
G01X61521Y60927D01*
G01X61545Y60898D01*
G01X61567Y60867D01*
G01X61588Y60835D01*
G01X61607Y60802D01*
G01X61624Y60768D01*
G01X61640Y60733D01*
G01X61654Y60698D01*
G01X61666Y60662D01*
G01X61676Y60626D01*
G01X61685Y60588D01*
G01X61691Y60551D01*
G01X61696Y60513D01*
G01X61699Y60475D01*
G01X61700Y60438D01*
G01X61700Y60162D01*
G01X61699Y60124D01*
G01X61696Y60086D01*
G01X61691Y60048D01*
G01X61685Y60011D01*
G01X61676Y59973D01*
G01X61666Y59937D01*
G01X61654Y59901D01*
G01X61640Y59866D01*
G01X61624Y59831D01*
G01X61607Y59797D01*
G01X61588Y59764D01*
G01X61567Y59732D01*
G01X61545Y59701D01*
G01X61521Y59672D01*
G01X61496Y59643D01*
G01X61470Y59616D01*
G01X61442Y59590D01*
G01X61413Y59566D01*
G01X61382Y59543D01*
G01X61351Y59521D01*
G01X61319Y59502D01*
G01X61285Y59483D01*
G01X61251Y59467D01*
G01X61216Y59452D01*
G01X61180Y59439D01*
G01X61144Y59428D01*
G01X61107Y59419D01*
G01X61070Y59411D01*
G01X61032Y59405D01*
G01X60995Y59402D01*
G01X60957Y59400D01*
G01X60919Y59400D01*
G37*
G36*
G01X60919Y56860D02*
G01X60881Y56862D01*
G01X60843Y56865D01*
G01X60805Y56871D01*
G01X60768Y56879D01*
G01X60731Y56888D01*
G01X60695Y56899D01*
G01X60659Y56912D01*
G01X60624Y56927D01*
G01X60590Y56943D01*
G01X60557Y56962D01*
G01X60524Y56981D01*
G01X60493Y57003D01*
G01X60463Y57026D01*
G01X60433Y57050D01*
G01X60406Y57076D01*
G01X60379Y57103D01*
G01X60354Y57132D01*
G01X60330Y57161D01*
G01X60308Y57192D01*
G01X60287Y57224D01*
G01X60268Y57257D01*
G01X60251Y57291D01*
G01X60235Y57326D01*
G01X60222Y57361D01*
G01X60210Y57397D01*
G01X60199Y57433D01*
G01X60191Y57471D01*
G01X60184Y57508D01*
G01X60179Y57546D01*
G01X60177Y57584D01*
G01X60176Y57622D01*
G01X60176Y57898D01*
G01X60177Y57935D01*
G01X60179Y57973D01*
G01X60184Y58011D01*
G01X60191Y58048D01*
G01X60199Y58086D01*
G01X60210Y58122D01*
G01X60222Y58158D01*
G01X60235Y58193D01*
G01X60251Y58228D01*
G01X60268Y58262D01*
G01X60287Y58295D01*
G01X60308Y58327D01*
G01X60330Y58358D01*
G01X60354Y58387D01*
G01X60379Y58416D01*
G01X60406Y58443D01*
G01X60433Y58469D01*
G01X60463Y58493D01*
G01X60493Y58516D01*
G01X60524Y58538D01*
G01X60557Y58557D01*
G01X60590Y58576D01*
G01X60624Y58592D01*
G01X60659Y58607D01*
G01X60695Y58620D01*
G01X60731Y58631D01*
G01X60768Y58640D01*
G01X60805Y58648D01*
G01X60843Y58654D01*
G01X60881Y58657D01*
G01X60919Y58659D01*
G01X60957Y58659D01*
G01X60995Y58657D01*
G01X61032Y58654D01*
G01X61070Y58648D01*
G01X61107Y58640D01*
G01X61144Y58631D01*
G01X61180Y58620D01*
G01X61216Y58607D01*
G01X61251Y58592D01*
G01X61285Y58576D01*
G01X61319Y58557D01*
G01X61351Y58538D01*
G01X61382Y58516D01*
G01X61413Y58493D01*
G01X61442Y58469D01*
G01X61470Y58443D01*
G01X61496Y58416D01*
G01X61521Y58387D01*
G01X61545Y58358D01*
G01X61567Y58327D01*
G01X61588Y58295D01*
G01X61607Y58262D01*
G01X61624Y58228D01*
G01X61640Y58193D01*
G01X61654Y58158D01*
G01X61666Y58122D01*
G01X61676Y58086D01*
G01X61685Y58048D01*
G01X61691Y58011D01*
G01X61696Y57973D01*
G01X61699Y57935D01*
G01X61700Y57898D01*
G01X61700Y57622D01*
G01X61699Y57584D01*
G01X61696Y57546D01*
G01X61691Y57508D01*
G01X61685Y57471D01*
G01X61676Y57433D01*
G01X61666Y57397D01*
G01X61654Y57361D01*
G01X61640Y57326D01*
G01X61624Y57291D01*
G01X61607Y57257D01*
G01X61588Y57224D01*
G01X61567Y57192D01*
G01X61545Y57161D01*
G01X61521Y57132D01*
G01X61496Y57103D01*
G01X61470Y57076D01*
G01X61442Y57050D01*
G01X61413Y57026D01*
G01X61382Y57003D01*
G01X61351Y56981D01*
G01X61319Y56962D01*
G01X61285Y56943D01*
G01X61251Y56927D01*
G01X61216Y56912D01*
G01X61180Y56899D01*
G01X61144Y56888D01*
G01X61107Y56879D01*
G01X61070Y56871D01*
G01X61032Y56865D01*
G01X60995Y56862D01*
G01X60957Y56860D01*
G01X60919Y56860D01*
G37*
M00*
M02*
