G04 Layer: TopSolderMaskLayer*
G04 EasyEDA v6.2.46, 2019-12-17T13:03:00+00:00*
G04 0172e0994fd644d79e33dd8747f588b4,932ed04fcfe14a16a0103060ae18c599,10*
G04 Gerber Generator version 0.2*
G04 Scale: 100 percent, Rotated: No, Reflected: No *
G04 Dimensions in millimeters *
G04 leading zeros omitted , absolute positions ,3 integer and 3 decimal *
%FSLAX33Y33*%
%MOMM*%
G90*
G71D02*

%ADD21C,1.903197*%
%ADD23C,1.778000*%
%ADD25C,1.703197*%

%LPD*%
G36*
G01X43116Y39027D02*
G01X43116Y40932D01*
G01X45021Y40932D01*
G01X45021Y39027D01*
G01X43116Y39027D01*
G37*
G54D21*
G01X44069Y37440D03*
G01X44069Y34900D03*
G01X44069Y32360D03*
G36*
G01X31496Y17374D02*
G01X31496Y19152D01*
G01X33274Y19152D01*
G01X33274Y17374D01*
G01X31496Y17374D01*
G37*
G54D23*
G01X34925Y18263D03*
G36*
G01X2313Y46606D02*
G01X2313Y48334D01*
G01X4041Y48334D01*
G01X4041Y46606D01*
G01X2313Y46606D01*
G37*
G36*
G01X27711Y44069D02*
G01X27711Y45796D01*
G01X29438Y45796D01*
G01X29438Y44069D01*
G01X27711Y44069D01*
G37*
G36*
G01X2313Y49146D02*
G01X2313Y50874D01*
G01X4041Y50874D01*
G01X4041Y49146D01*
G01X2313Y49146D01*
G37*
G36*
G01X2313Y51686D02*
G01X2313Y53414D01*
G01X4041Y53414D01*
G01X4041Y51686D01*
G01X2313Y51686D01*
G37*
G36*
G01X2313Y54226D02*
G01X2313Y55954D01*
G01X4041Y55954D01*
G01X4041Y54226D01*
G01X2313Y54226D01*
G37*
G36*
G01X2313Y56766D02*
G01X2313Y58494D01*
G01X4041Y58494D01*
G01X4041Y56766D01*
G01X2313Y56766D01*
G37*
G36*
G01X2313Y59306D02*
G01X2313Y61034D01*
G01X4041Y61034D01*
G01X4041Y59306D01*
G01X2313Y59306D01*
G37*
G36*
G01X2313Y61846D02*
G01X2313Y63574D01*
G01X4041Y63574D01*
G01X4041Y61846D01*
G01X2313Y61846D01*
G37*
G36*
G01X2313Y44066D02*
G01X2313Y45794D01*
G01X4041Y45794D01*
G01X4041Y44066D01*
G01X2313Y44066D01*
G37*
G36*
G01X2313Y41526D02*
G01X2313Y43254D01*
G01X4041Y43254D01*
G01X4041Y41526D01*
G01X2313Y41526D01*
G37*
G36*
G01X2313Y38986D02*
G01X2313Y40714D01*
G01X4041Y40714D01*
G01X4041Y38986D01*
G01X2313Y38986D01*
G37*
G36*
G01X2313Y36446D02*
G01X2313Y38174D01*
G01X4041Y38174D01*
G01X4041Y36446D01*
G01X2313Y36446D01*
G37*
G36*
G01X2313Y33906D02*
G01X2313Y35634D01*
G01X4041Y35634D01*
G01X4041Y33906D01*
G01X2313Y33906D01*
G37*
G36*
G01X2313Y31366D02*
G01X2313Y33094D01*
G01X4041Y33094D01*
G01X4041Y31366D01*
G01X2313Y31366D01*
G37*
G36*
G01X27711Y41529D02*
G01X27711Y43256D01*
G01X29438Y43256D01*
G01X29438Y41529D01*
G01X27711Y41529D01*
G37*
G36*
G01X27711Y38989D02*
G01X27711Y40716D01*
G01X29438Y40716D01*
G01X29438Y38989D01*
G01X27711Y38989D01*
G37*
G36*
G01X27711Y36449D02*
G01X27711Y38176D01*
G01X29438Y38176D01*
G01X29438Y36449D01*
G01X27711Y36449D01*
G37*
G36*
G01X27711Y33909D02*
G01X27711Y35636D01*
G01X29438Y35636D01*
G01X29438Y33909D01*
G01X27711Y33909D01*
G37*
G36*
G01X27711Y31369D02*
G01X27711Y33096D01*
G01X29438Y33096D01*
G01X29438Y31369D01*
G01X27711Y31369D01*
G37*
G36*
G01X27711Y28829D02*
G01X27711Y30556D01*
G01X29438Y30556D01*
G01X29438Y28829D01*
G01X27711Y28829D01*
G37*
G36*
G01X27711Y46609D02*
G01X27711Y48336D01*
G01X29438Y48336D01*
G01X29438Y46609D01*
G01X27711Y46609D01*
G37*
G36*
G01X27711Y49149D02*
G01X27711Y50876D01*
G01X29438Y50876D01*
G01X29438Y49149D01*
G01X27711Y49149D01*
G37*
G36*
G01X27711Y51689D02*
G01X27711Y53416D01*
G01X29438Y53416D01*
G01X29438Y51689D01*
G01X27711Y51689D01*
G37*
G36*
G01X27711Y54229D02*
G01X27711Y55956D01*
G01X29438Y55956D01*
G01X29438Y54229D01*
G01X27711Y54229D01*
G37*
G36*
G01X27711Y56769D02*
G01X27711Y58496D01*
G01X29438Y58496D01*
G01X29438Y56769D01*
G01X27711Y56769D01*
G37*
G36*
G01X27711Y59309D02*
G01X27711Y61036D01*
G01X29438Y61036D01*
G01X29438Y59309D01*
G01X27711Y59309D01*
G37*
G36*
G01X2311Y28829D02*
G01X2311Y30556D01*
G01X4038Y30556D01*
G01X4038Y28829D01*
G01X2311Y28829D01*
G37*
G36*
G01X2311Y26289D02*
G01X2311Y28016D01*
G01X4038Y28016D01*
G01X4038Y26289D01*
G01X2311Y26289D01*
G37*
G36*
G01X27711Y26289D02*
G01X27711Y28016D01*
G01X29438Y28016D01*
G01X29438Y26289D01*
G01X27711Y26289D01*
G37*
G36*
G01X27711Y61849D02*
G01X27711Y63576D01*
G01X29438Y63576D01*
G01X29438Y61849D01*
G01X27711Y61849D01*
G37*
G54D25*
G01X34925Y34900D03*
G01X34925Y37440D03*
G01X34925Y39980D03*
G36*
G01X35560Y67173D02*
G01X35473Y67178D01*
G01X35433Y67185D01*
G01X35389Y67193D01*
G01X35349Y67203D01*
G01X35306Y67216D01*
G01X35265Y67231D01*
G01X35189Y67267D01*
G01X35151Y67287D01*
G01X35112Y67310D01*
G01X35077Y67335D01*
G01X35044Y67361D01*
G01X34978Y67417D01*
G01X34947Y67447D01*
G01X34919Y67480D01*
G01X34894Y67513D01*
G01X34869Y67549D01*
G01X34846Y67584D01*
G01X34823Y67622D01*
G01X34803Y67660D01*
G01X34785Y67701D01*
G01X34770Y67739D01*
G01X34757Y67780D01*
G01X34744Y67823D01*
G01X34734Y67864D01*
G01X34726Y67907D01*
G01X34721Y67950D01*
G01X34719Y67993D01*
G01X34719Y68354D01*
G01X34721Y68397D01*
G01X34726Y68440D01*
G01X34734Y68483D01*
G01X34744Y68524D01*
G01X34757Y68567D01*
G01X34770Y68608D01*
G01X34785Y68646D01*
G01X34803Y68687D01*
G01X34823Y68725D01*
G01X34846Y68763D01*
G01X34869Y68798D01*
G01X34894Y68834D01*
G01X34919Y68867D01*
G01X34947Y68900D01*
G01X34978Y68930D01*
G01X35044Y68986D01*
G01X35077Y69012D01*
G01X35112Y69037D01*
G01X35151Y69060D01*
G01X35189Y69080D01*
G01X35265Y69116D01*
G01X35306Y69131D01*
G01X35349Y69144D01*
G01X35389Y69154D01*
G01X35433Y69162D01*
G01X35473Y69169D01*
G01X35560Y69174D01*
G01X35603Y69174D01*
G01X35689Y69169D01*
G01X35732Y69162D01*
G01X35773Y69154D01*
G01X35816Y69144D01*
G01X35857Y69131D01*
G01X35897Y69116D01*
G01X35938Y69098D01*
G01X35976Y69080D01*
G01X36014Y69060D01*
G01X36050Y69037D01*
G01X36121Y68986D01*
G01X36154Y68958D01*
G01X36184Y68930D01*
G01X36215Y68900D01*
G01X36271Y68834D01*
G01X36296Y68798D01*
G01X36319Y68763D01*
G01X36360Y68687D01*
G01X36377Y68646D01*
G01X36393Y68608D01*
G01X36408Y68567D01*
G01X36418Y68524D01*
G01X36428Y68483D01*
G01X36436Y68440D01*
G01X36441Y68397D01*
G01X36443Y68354D01*
G01X36446Y68313D01*
G01X36446Y68034D01*
G01X36443Y67993D01*
G01X36441Y67950D01*
G01X36436Y67907D01*
G01X36428Y67864D01*
G01X36418Y67823D01*
G01X36408Y67780D01*
G01X36393Y67739D01*
G01X36377Y67701D01*
G01X36360Y67660D01*
G01X36319Y67584D01*
G01X36296Y67549D01*
G01X36271Y67513D01*
G01X36215Y67447D01*
G01X36184Y67417D01*
G01X36154Y67389D01*
G01X36121Y67361D01*
G01X36050Y67310D01*
G01X36014Y67287D01*
G01X35976Y67267D01*
G01X35938Y67249D01*
G01X35897Y67231D01*
G01X35857Y67216D01*
G01X35816Y67203D01*
G01X35773Y67193D01*
G01X35732Y67185D01*
G01X35689Y67178D01*
G01X35603Y67173D01*
G01X35560Y67173D01*
G37*
G36*
G01X35560Y64633D02*
G01X35473Y64638D01*
G01X35433Y64645D01*
G01X35389Y64653D01*
G01X35349Y64663D01*
G01X35306Y64676D01*
G01X35265Y64691D01*
G01X35189Y64727D01*
G01X35151Y64747D01*
G01X35112Y64770D01*
G01X35077Y64795D01*
G01X35044Y64821D01*
G01X34978Y64877D01*
G01X34947Y64907D01*
G01X34919Y64940D01*
G01X34894Y64973D01*
G01X34869Y65009D01*
G01X34846Y65044D01*
G01X34823Y65082D01*
G01X34803Y65120D01*
G01X34785Y65161D01*
G01X34770Y65199D01*
G01X34757Y65240D01*
G01X34744Y65283D01*
G01X34734Y65324D01*
G01X34726Y65367D01*
G01X34721Y65410D01*
G01X34719Y65453D01*
G01X34719Y65814D01*
G01X34721Y65857D01*
G01X34726Y65900D01*
G01X34734Y65943D01*
G01X34744Y65984D01*
G01X34757Y66027D01*
G01X34770Y66068D01*
G01X34785Y66106D01*
G01X34803Y66147D01*
G01X34823Y66185D01*
G01X34846Y66223D01*
G01X34869Y66258D01*
G01X34894Y66294D01*
G01X34919Y66327D01*
G01X34947Y66360D01*
G01X34978Y66390D01*
G01X35044Y66446D01*
G01X35077Y66472D01*
G01X35112Y66497D01*
G01X35151Y66520D01*
G01X35189Y66540D01*
G01X35265Y66576D01*
G01X35306Y66591D01*
G01X35349Y66604D01*
G01X35389Y66614D01*
G01X35433Y66622D01*
G01X35473Y66629D01*
G01X35560Y66634D01*
G01X35603Y66634D01*
G01X35689Y66629D01*
G01X35732Y66622D01*
G01X35773Y66614D01*
G01X35816Y66604D01*
G01X35857Y66591D01*
G01X35897Y66576D01*
G01X35938Y66558D01*
G01X35976Y66540D01*
G01X36014Y66520D01*
G01X36050Y66497D01*
G01X36121Y66446D01*
G01X36154Y66418D01*
G01X36184Y66390D01*
G01X36215Y66360D01*
G01X36271Y66294D01*
G01X36296Y66258D01*
G01X36319Y66223D01*
G01X36360Y66147D01*
G01X36377Y66106D01*
G01X36393Y66068D01*
G01X36408Y66027D01*
G01X36418Y65984D01*
G01X36428Y65943D01*
G01X36436Y65900D01*
G01X36441Y65857D01*
G01X36443Y65814D01*
G01X36446Y65773D01*
G01X36446Y65494D01*
G01X36443Y65453D01*
G01X36441Y65410D01*
G01X36436Y65367D01*
G01X36428Y65324D01*
G01X36418Y65283D01*
G01X36408Y65240D01*
G01X36393Y65199D01*
G01X36377Y65161D01*
G01X36360Y65120D01*
G01X36319Y65044D01*
G01X36296Y65009D01*
G01X36271Y64973D01*
G01X36215Y64907D01*
G01X36184Y64877D01*
G01X36154Y64849D01*
G01X36121Y64821D01*
G01X36050Y64770D01*
G01X36014Y64747D01*
G01X35976Y64727D01*
G01X35938Y64709D01*
G01X35897Y64691D01*
G01X35857Y64676D01*
G01X35816Y64663D01*
G01X35773Y64653D01*
G01X35732Y64645D01*
G01X35689Y64638D01*
G01X35603Y64633D01*
G01X35560Y64633D01*
G37*
G36*
G01X35560Y62093D02*
G01X35473Y62098D01*
G01X35433Y62105D01*
G01X35389Y62113D01*
G01X35349Y62123D01*
G01X35306Y62136D01*
G01X35265Y62151D01*
G01X35189Y62187D01*
G01X35151Y62207D01*
G01X35112Y62230D01*
G01X35077Y62255D01*
G01X35044Y62281D01*
G01X34978Y62337D01*
G01X34947Y62367D01*
G01X34919Y62400D01*
G01X34894Y62433D01*
G01X34869Y62469D01*
G01X34846Y62504D01*
G01X34823Y62542D01*
G01X34803Y62580D01*
G01X34785Y62621D01*
G01X34770Y62659D01*
G01X34757Y62700D01*
G01X34744Y62743D01*
G01X34734Y62784D01*
G01X34726Y62827D01*
G01X34721Y62870D01*
G01X34719Y62913D01*
G01X34719Y63274D01*
G01X34721Y63317D01*
G01X34726Y63360D01*
G01X34734Y63403D01*
G01X34744Y63444D01*
G01X34757Y63487D01*
G01X34770Y63528D01*
G01X34785Y63566D01*
G01X34803Y63607D01*
G01X34823Y63645D01*
G01X34846Y63683D01*
G01X34869Y63718D01*
G01X34894Y63754D01*
G01X34919Y63787D01*
G01X34947Y63820D01*
G01X34978Y63850D01*
G01X35044Y63906D01*
G01X35077Y63932D01*
G01X35112Y63957D01*
G01X35151Y63980D01*
G01X35189Y64000D01*
G01X35265Y64036D01*
G01X35306Y64051D01*
G01X35349Y64064D01*
G01X35389Y64074D01*
G01X35433Y64082D01*
G01X35473Y64089D01*
G01X35560Y64094D01*
G01X35603Y64094D01*
G01X35689Y64089D01*
G01X35732Y64082D01*
G01X35773Y64074D01*
G01X35816Y64064D01*
G01X35857Y64051D01*
G01X35897Y64036D01*
G01X35938Y64018D01*
G01X35976Y64000D01*
G01X36014Y63980D01*
G01X36050Y63957D01*
G01X36121Y63906D01*
G01X36154Y63878D01*
G01X36184Y63850D01*
G01X36215Y63820D01*
G01X36271Y63754D01*
G01X36296Y63718D01*
G01X36319Y63683D01*
G01X36360Y63607D01*
G01X36377Y63566D01*
G01X36393Y63528D01*
G01X36408Y63487D01*
G01X36418Y63444D01*
G01X36428Y63403D01*
G01X36436Y63360D01*
G01X36441Y63317D01*
G01X36443Y63274D01*
G01X36446Y63233D01*
G01X36446Y62954D01*
G01X36443Y62913D01*
G01X36441Y62870D01*
G01X36436Y62827D01*
G01X36428Y62784D01*
G01X36418Y62743D01*
G01X36408Y62700D01*
G01X36393Y62659D01*
G01X36377Y62621D01*
G01X36360Y62580D01*
G01X36319Y62504D01*
G01X36296Y62469D01*
G01X36271Y62433D01*
G01X36215Y62367D01*
G01X36184Y62337D01*
G01X36154Y62309D01*
G01X36121Y62281D01*
G01X36050Y62230D01*
G01X36014Y62207D01*
G01X35976Y62187D01*
G01X35938Y62169D01*
G01X35897Y62151D01*
G01X35857Y62136D01*
G01X35816Y62123D01*
G01X35773Y62113D01*
G01X35732Y62105D01*
G01X35689Y62098D01*
G01X35603Y62093D01*
G01X35560Y62093D01*
G37*
G36*
G01X35560Y59553D02*
G01X35473Y59558D01*
G01X35433Y59565D01*
G01X35389Y59573D01*
G01X35349Y59583D01*
G01X35306Y59596D01*
G01X35265Y59611D01*
G01X35189Y59647D01*
G01X35151Y59667D01*
G01X35112Y59690D01*
G01X35077Y59715D01*
G01X35044Y59741D01*
G01X34978Y59797D01*
G01X34947Y59827D01*
G01X34919Y59860D01*
G01X34894Y59893D01*
G01X34869Y59929D01*
G01X34846Y59964D01*
G01X34823Y60002D01*
G01X34803Y60040D01*
G01X34785Y60081D01*
G01X34770Y60119D01*
G01X34757Y60160D01*
G01X34744Y60203D01*
G01X34734Y60244D01*
G01X34726Y60287D01*
G01X34721Y60330D01*
G01X34719Y60373D01*
G01X34719Y60734D01*
G01X34721Y60777D01*
G01X34726Y60820D01*
G01X34734Y60863D01*
G01X34744Y60904D01*
G01X34757Y60947D01*
G01X34770Y60988D01*
G01X34785Y61026D01*
G01X34803Y61067D01*
G01X34823Y61105D01*
G01X34846Y61143D01*
G01X34869Y61178D01*
G01X34894Y61214D01*
G01X34919Y61247D01*
G01X34947Y61280D01*
G01X34978Y61310D01*
G01X35044Y61366D01*
G01X35077Y61392D01*
G01X35112Y61417D01*
G01X35151Y61440D01*
G01X35189Y61460D01*
G01X35265Y61496D01*
G01X35306Y61511D01*
G01X35349Y61524D01*
G01X35389Y61534D01*
G01X35433Y61542D01*
G01X35473Y61549D01*
G01X35560Y61554D01*
G01X35603Y61554D01*
G01X35689Y61549D01*
G01X35732Y61542D01*
G01X35773Y61534D01*
G01X35816Y61524D01*
G01X35857Y61511D01*
G01X35897Y61496D01*
G01X35938Y61478D01*
G01X35976Y61460D01*
G01X36014Y61440D01*
G01X36050Y61417D01*
G01X36121Y61366D01*
G01X36154Y61338D01*
G01X36184Y61310D01*
G01X36215Y61280D01*
G01X36271Y61214D01*
G01X36296Y61178D01*
G01X36319Y61143D01*
G01X36360Y61067D01*
G01X36377Y61026D01*
G01X36393Y60988D01*
G01X36408Y60947D01*
G01X36418Y60904D01*
G01X36428Y60863D01*
G01X36436Y60820D01*
G01X36441Y60777D01*
G01X36443Y60734D01*
G01X36446Y60693D01*
G01X36446Y60414D01*
G01X36443Y60373D01*
G01X36441Y60330D01*
G01X36436Y60287D01*
G01X36428Y60244D01*
G01X36418Y60203D01*
G01X36408Y60160D01*
G01X36393Y60119D01*
G01X36377Y60081D01*
G01X36360Y60040D01*
G01X36319Y59964D01*
G01X36296Y59929D01*
G01X36271Y59893D01*
G01X36215Y59827D01*
G01X36184Y59797D01*
G01X36154Y59769D01*
G01X36121Y59741D01*
G01X36050Y59690D01*
G01X36014Y59667D01*
G01X35976Y59647D01*
G01X35938Y59629D01*
G01X35897Y59611D01*
G01X35857Y59596D01*
G01X35816Y59583D01*
G01X35773Y59573D01*
G01X35732Y59565D01*
G01X35689Y59558D01*
G01X35603Y59553D01*
G01X35560Y59553D01*
G37*
G36*
G01X35560Y57013D02*
G01X35473Y57018D01*
G01X35433Y57025D01*
G01X35389Y57033D01*
G01X35349Y57043D01*
G01X35306Y57056D01*
G01X35265Y57071D01*
G01X35189Y57107D01*
G01X35151Y57127D01*
G01X35112Y57150D01*
G01X35077Y57175D01*
G01X35044Y57201D01*
G01X34978Y57257D01*
G01X34947Y57287D01*
G01X34919Y57320D01*
G01X34894Y57353D01*
G01X34869Y57389D01*
G01X34846Y57424D01*
G01X34823Y57462D01*
G01X34803Y57500D01*
G01X34785Y57541D01*
G01X34770Y57579D01*
G01X34757Y57620D01*
G01X34744Y57663D01*
G01X34734Y57704D01*
G01X34726Y57747D01*
G01X34721Y57790D01*
G01X34719Y57833D01*
G01X34719Y58194D01*
G01X34721Y58237D01*
G01X34726Y58280D01*
G01X34734Y58323D01*
G01X34744Y58364D01*
G01X34757Y58407D01*
G01X34770Y58448D01*
G01X34785Y58486D01*
G01X34803Y58527D01*
G01X34823Y58565D01*
G01X34846Y58603D01*
G01X34869Y58638D01*
G01X34894Y58674D01*
G01X34919Y58707D01*
G01X34947Y58740D01*
G01X34978Y58770D01*
G01X35044Y58826D01*
G01X35077Y58852D01*
G01X35112Y58877D01*
G01X35151Y58900D01*
G01X35189Y58920D01*
G01X35265Y58956D01*
G01X35306Y58971D01*
G01X35349Y58984D01*
G01X35389Y58994D01*
G01X35433Y59002D01*
G01X35473Y59009D01*
G01X35560Y59014D01*
G01X35603Y59014D01*
G01X35689Y59009D01*
G01X35732Y59002D01*
G01X35773Y58994D01*
G01X35816Y58984D01*
G01X35857Y58971D01*
G01X35897Y58956D01*
G01X35938Y58938D01*
G01X35976Y58920D01*
G01X36014Y58900D01*
G01X36050Y58877D01*
G01X36121Y58826D01*
G01X36154Y58798D01*
G01X36184Y58770D01*
G01X36215Y58740D01*
G01X36271Y58674D01*
G01X36296Y58638D01*
G01X36319Y58603D01*
G01X36360Y58527D01*
G01X36377Y58486D01*
G01X36393Y58448D01*
G01X36408Y58407D01*
G01X36418Y58364D01*
G01X36428Y58323D01*
G01X36436Y58280D01*
G01X36441Y58237D01*
G01X36443Y58194D01*
G01X36446Y58153D01*
G01X36446Y57874D01*
G01X36443Y57833D01*
G01X36441Y57790D01*
G01X36436Y57747D01*
G01X36428Y57704D01*
G01X36418Y57663D01*
G01X36408Y57620D01*
G01X36393Y57579D01*
G01X36377Y57541D01*
G01X36360Y57500D01*
G01X36319Y57424D01*
G01X36296Y57389D01*
G01X36271Y57353D01*
G01X36215Y57287D01*
G01X36184Y57257D01*
G01X36154Y57229D01*
G01X36121Y57201D01*
G01X36050Y57150D01*
G01X36014Y57127D01*
G01X35976Y57107D01*
G01X35938Y57089D01*
G01X35897Y57071D01*
G01X35857Y57056D01*
G01X35816Y57043D01*
G01X35773Y57033D01*
G01X35732Y57025D01*
G01X35689Y57018D01*
G01X35603Y57013D01*
G01X35560Y57013D01*
G37*
G36*
G01X35560Y54473D02*
G01X35473Y54478D01*
G01X35433Y54485D01*
G01X35389Y54493D01*
G01X35349Y54503D01*
G01X35306Y54516D01*
G01X35265Y54531D01*
G01X35189Y54567D01*
G01X35151Y54587D01*
G01X35112Y54610D01*
G01X35077Y54635D01*
G01X35044Y54661D01*
G01X34978Y54717D01*
G01X34947Y54747D01*
G01X34919Y54780D01*
G01X34894Y54813D01*
G01X34869Y54849D01*
G01X34846Y54884D01*
G01X34823Y54922D01*
G01X34803Y54960D01*
G01X34785Y55001D01*
G01X34770Y55039D01*
G01X34757Y55080D01*
G01X34744Y55123D01*
G01X34734Y55164D01*
G01X34726Y55207D01*
G01X34721Y55250D01*
G01X34719Y55293D01*
G01X34719Y55654D01*
G01X34721Y55697D01*
G01X34726Y55740D01*
G01X34734Y55783D01*
G01X34744Y55824D01*
G01X34757Y55867D01*
G01X34770Y55908D01*
G01X34785Y55946D01*
G01X34803Y55987D01*
G01X34823Y56025D01*
G01X34846Y56063D01*
G01X34869Y56098D01*
G01X34894Y56134D01*
G01X34919Y56167D01*
G01X34947Y56200D01*
G01X34978Y56230D01*
G01X35044Y56286D01*
G01X35077Y56312D01*
G01X35112Y56337D01*
G01X35151Y56360D01*
G01X35189Y56380D01*
G01X35265Y56416D01*
G01X35306Y56431D01*
G01X35349Y56444D01*
G01X35389Y56454D01*
G01X35433Y56462D01*
G01X35473Y56469D01*
G01X35560Y56474D01*
G01X35603Y56474D01*
G01X35689Y56469D01*
G01X35732Y56462D01*
G01X35773Y56454D01*
G01X35816Y56444D01*
G01X35857Y56431D01*
G01X35897Y56416D01*
G01X35938Y56398D01*
G01X35976Y56380D01*
G01X36014Y56360D01*
G01X36050Y56337D01*
G01X36121Y56286D01*
G01X36154Y56258D01*
G01X36184Y56230D01*
G01X36215Y56200D01*
G01X36271Y56134D01*
G01X36296Y56098D01*
G01X36319Y56063D01*
G01X36360Y55987D01*
G01X36377Y55946D01*
G01X36393Y55908D01*
G01X36408Y55867D01*
G01X36418Y55824D01*
G01X36428Y55783D01*
G01X36436Y55740D01*
G01X36441Y55697D01*
G01X36443Y55654D01*
G01X36446Y55613D01*
G01X36446Y55334D01*
G01X36443Y55293D01*
G01X36441Y55250D01*
G01X36436Y55207D01*
G01X36428Y55164D01*
G01X36418Y55123D01*
G01X36408Y55080D01*
G01X36393Y55039D01*
G01X36377Y55001D01*
G01X36360Y54960D01*
G01X36319Y54884D01*
G01X36296Y54849D01*
G01X36271Y54813D01*
G01X36215Y54747D01*
G01X36184Y54717D01*
G01X36154Y54689D01*
G01X36121Y54661D01*
G01X36050Y54610D01*
G01X36014Y54587D01*
G01X35976Y54567D01*
G01X35938Y54549D01*
G01X35897Y54531D01*
G01X35857Y54516D01*
G01X35816Y54503D01*
G01X35773Y54493D01*
G01X35732Y54485D01*
G01X35689Y54478D01*
G01X35603Y54473D01*
G01X35560Y54473D01*
G37*
G36*
G01X60916Y64379D02*
G01X60830Y64384D01*
G01X60787Y64391D01*
G01X60746Y64399D01*
G01X60703Y64409D01*
G01X60662Y64422D01*
G01X60622Y64437D01*
G01X60584Y64455D01*
G01X60543Y64473D01*
G01X60505Y64493D01*
G01X60469Y64516D01*
G01X60398Y64567D01*
G01X60365Y64595D01*
G01X60335Y64623D01*
G01X60304Y64653D01*
G01X60248Y64719D01*
G01X60223Y64755D01*
G01X60200Y64790D01*
G01X60159Y64866D01*
G01X60142Y64907D01*
G01X60126Y64945D01*
G01X60111Y64986D01*
G01X60101Y65029D01*
G01X60091Y65070D01*
G01X60083Y65113D01*
G01X60078Y65156D01*
G01X60076Y65199D01*
G01X60073Y65240D01*
G01X60073Y65519D01*
G01X60076Y65560D01*
G01X60078Y65603D01*
G01X60083Y65646D01*
G01X60091Y65689D01*
G01X60101Y65730D01*
G01X60111Y65773D01*
G01X60126Y65814D01*
G01X60142Y65852D01*
G01X60159Y65893D01*
G01X60200Y65969D01*
G01X60223Y66004D01*
G01X60248Y66040D01*
G01X60304Y66106D01*
G01X60335Y66136D01*
G01X60365Y66164D01*
G01X60398Y66192D01*
G01X60469Y66243D01*
G01X60505Y66266D01*
G01X60543Y66286D01*
G01X60584Y66304D01*
G01X60622Y66322D01*
G01X60662Y66337D01*
G01X60703Y66350D01*
G01X60746Y66360D01*
G01X60787Y66368D01*
G01X60830Y66375D01*
G01X60916Y66380D01*
G01X60960Y66380D01*
G01X61046Y66375D01*
G01X61087Y66368D01*
G01X61130Y66360D01*
G01X61170Y66350D01*
G01X61214Y66337D01*
G01X61254Y66322D01*
G01X61292Y66304D01*
G01X61333Y66286D01*
G01X61368Y66266D01*
G01X61407Y66243D01*
G01X61442Y66218D01*
G01X61475Y66192D01*
G01X61541Y66136D01*
G01X61572Y66106D01*
G01X61600Y66073D01*
G01X61625Y66040D01*
G01X61676Y65969D01*
G01X61716Y65893D01*
G01X61734Y65852D01*
G01X61749Y65814D01*
G01X61762Y65773D01*
G01X61775Y65730D01*
G01X61785Y65689D01*
G01X61793Y65646D01*
G01X61798Y65603D01*
G01X61800Y65560D01*
G01X61800Y65199D01*
G01X61798Y65156D01*
G01X61793Y65113D01*
G01X61785Y65070D01*
G01X61775Y65029D01*
G01X61762Y64986D01*
G01X61749Y64945D01*
G01X61734Y64907D01*
G01X61716Y64866D01*
G01X61676Y64790D01*
G01X61625Y64719D01*
G01X61600Y64686D01*
G01X61572Y64653D01*
G01X61541Y64623D01*
G01X61475Y64567D01*
G01X61442Y64541D01*
G01X61407Y64516D01*
G01X61368Y64493D01*
G01X61333Y64473D01*
G01X61292Y64455D01*
G01X61254Y64437D01*
G01X61214Y64422D01*
G01X61170Y64409D01*
G01X61130Y64399D01*
G01X61087Y64391D01*
G01X61046Y64384D01*
G01X60960Y64379D01*
G01X60916Y64379D01*
G37*
G36*
G01X60916Y61839D02*
G01X60830Y61844D01*
G01X60787Y61851D01*
G01X60746Y61859D01*
G01X60703Y61869D01*
G01X60662Y61882D01*
G01X60622Y61897D01*
G01X60584Y61915D01*
G01X60543Y61933D01*
G01X60505Y61953D01*
G01X60469Y61976D01*
G01X60398Y62027D01*
G01X60365Y62055D01*
G01X60335Y62083D01*
G01X60304Y62113D01*
G01X60248Y62179D01*
G01X60223Y62215D01*
G01X60200Y62250D01*
G01X60159Y62326D01*
G01X60142Y62367D01*
G01X60126Y62405D01*
G01X60111Y62446D01*
G01X60101Y62489D01*
G01X60091Y62530D01*
G01X60083Y62573D01*
G01X60078Y62616D01*
G01X60076Y62659D01*
G01X60073Y62700D01*
G01X60073Y62979D01*
G01X60076Y63020D01*
G01X60078Y63063D01*
G01X60083Y63106D01*
G01X60091Y63149D01*
G01X60101Y63190D01*
G01X60111Y63233D01*
G01X60126Y63274D01*
G01X60142Y63312D01*
G01X60159Y63353D01*
G01X60200Y63429D01*
G01X60223Y63464D01*
G01X60248Y63500D01*
G01X60304Y63566D01*
G01X60335Y63596D01*
G01X60365Y63624D01*
G01X60398Y63652D01*
G01X60469Y63703D01*
G01X60505Y63726D01*
G01X60543Y63746D01*
G01X60584Y63764D01*
G01X60622Y63782D01*
G01X60662Y63797D01*
G01X60703Y63810D01*
G01X60746Y63820D01*
G01X60787Y63828D01*
G01X60830Y63835D01*
G01X60916Y63840D01*
G01X60960Y63840D01*
G01X61046Y63835D01*
G01X61087Y63828D01*
G01X61130Y63820D01*
G01X61170Y63810D01*
G01X61214Y63797D01*
G01X61254Y63782D01*
G01X61292Y63764D01*
G01X61333Y63746D01*
G01X61368Y63726D01*
G01X61407Y63703D01*
G01X61442Y63678D01*
G01X61475Y63652D01*
G01X61541Y63596D01*
G01X61572Y63566D01*
G01X61600Y63533D01*
G01X61625Y63500D01*
G01X61676Y63429D01*
G01X61716Y63353D01*
G01X61734Y63312D01*
G01X61749Y63274D01*
G01X61762Y63233D01*
G01X61775Y63190D01*
G01X61785Y63149D01*
G01X61793Y63106D01*
G01X61798Y63063D01*
G01X61800Y63020D01*
G01X61800Y62659D01*
G01X61798Y62616D01*
G01X61793Y62573D01*
G01X61785Y62530D01*
G01X61775Y62489D01*
G01X61762Y62446D01*
G01X61749Y62405D01*
G01X61734Y62367D01*
G01X61716Y62326D01*
G01X61676Y62250D01*
G01X61625Y62179D01*
G01X61600Y62146D01*
G01X61572Y62113D01*
G01X61541Y62083D01*
G01X61475Y62027D01*
G01X61442Y62001D01*
G01X61407Y61976D01*
G01X61368Y61953D01*
G01X61333Y61933D01*
G01X61292Y61915D01*
G01X61254Y61897D01*
G01X61214Y61882D01*
G01X61170Y61869D01*
G01X61130Y61859D01*
G01X61087Y61851D01*
G01X61046Y61844D01*
G01X60960Y61839D01*
G01X60916Y61839D01*
G37*
G36*
G01X60916Y59299D02*
G01X60830Y59304D01*
G01X60787Y59311D01*
G01X60746Y59319D01*
G01X60703Y59329D01*
G01X60662Y59342D01*
G01X60622Y59357D01*
G01X60584Y59375D01*
G01X60543Y59393D01*
G01X60505Y59413D01*
G01X60469Y59436D01*
G01X60398Y59487D01*
G01X60365Y59515D01*
G01X60335Y59543D01*
G01X60304Y59573D01*
G01X60248Y59639D01*
G01X60223Y59675D01*
G01X60200Y59710D01*
G01X60159Y59786D01*
G01X60142Y59827D01*
G01X60126Y59865D01*
G01X60111Y59906D01*
G01X60101Y59949D01*
G01X60091Y59990D01*
G01X60083Y60033D01*
G01X60078Y60076D01*
G01X60076Y60119D01*
G01X60073Y60160D01*
G01X60073Y60439D01*
G01X60076Y60480D01*
G01X60078Y60523D01*
G01X60083Y60566D01*
G01X60091Y60609D01*
G01X60101Y60650D01*
G01X60111Y60693D01*
G01X60126Y60734D01*
G01X60142Y60772D01*
G01X60159Y60813D01*
G01X60200Y60889D01*
G01X60223Y60924D01*
G01X60248Y60960D01*
G01X60304Y61026D01*
G01X60335Y61056D01*
G01X60365Y61084D01*
G01X60398Y61112D01*
G01X60469Y61163D01*
G01X60505Y61186D01*
G01X60543Y61206D01*
G01X60584Y61224D01*
G01X60622Y61242D01*
G01X60662Y61257D01*
G01X60703Y61270D01*
G01X60746Y61280D01*
G01X60787Y61288D01*
G01X60830Y61295D01*
G01X60916Y61300D01*
G01X60960Y61300D01*
G01X61046Y61295D01*
G01X61087Y61288D01*
G01X61130Y61280D01*
G01X61170Y61270D01*
G01X61214Y61257D01*
G01X61254Y61242D01*
G01X61292Y61224D01*
G01X61333Y61206D01*
G01X61368Y61186D01*
G01X61407Y61163D01*
G01X61442Y61138D01*
G01X61475Y61112D01*
G01X61541Y61056D01*
G01X61572Y61026D01*
G01X61600Y60993D01*
G01X61625Y60960D01*
G01X61676Y60889D01*
G01X61716Y60813D01*
G01X61734Y60772D01*
G01X61749Y60734D01*
G01X61762Y60693D01*
G01X61775Y60650D01*
G01X61785Y60609D01*
G01X61793Y60566D01*
G01X61798Y60523D01*
G01X61800Y60480D01*
G01X61800Y60119D01*
G01X61798Y60076D01*
G01X61793Y60033D01*
G01X61785Y59990D01*
G01X61775Y59949D01*
G01X61762Y59906D01*
G01X61749Y59865D01*
G01X61734Y59827D01*
G01X61716Y59786D01*
G01X61676Y59710D01*
G01X61625Y59639D01*
G01X61600Y59606D01*
G01X61572Y59573D01*
G01X61541Y59543D01*
G01X61475Y59487D01*
G01X61442Y59461D01*
G01X61407Y59436D01*
G01X61368Y59413D01*
G01X61333Y59393D01*
G01X61292Y59375D01*
G01X61254Y59357D01*
G01X61214Y59342D01*
G01X61170Y59329D01*
G01X61130Y59319D01*
G01X61087Y59311D01*
G01X61046Y59304D01*
G01X60960Y59299D01*
G01X60916Y59299D01*
G37*
G36*
G01X60916Y56759D02*
G01X60830Y56764D01*
G01X60787Y56771D01*
G01X60746Y56779D01*
G01X60703Y56789D01*
G01X60662Y56802D01*
G01X60622Y56817D01*
G01X60584Y56835D01*
G01X60543Y56853D01*
G01X60505Y56873D01*
G01X60469Y56896D01*
G01X60398Y56947D01*
G01X60365Y56975D01*
G01X60335Y57003D01*
G01X60304Y57033D01*
G01X60248Y57099D01*
G01X60223Y57135D01*
G01X60200Y57170D01*
G01X60159Y57246D01*
G01X60142Y57287D01*
G01X60126Y57325D01*
G01X60111Y57366D01*
G01X60101Y57409D01*
G01X60091Y57450D01*
G01X60083Y57493D01*
G01X60078Y57536D01*
G01X60076Y57579D01*
G01X60073Y57620D01*
G01X60073Y57899D01*
G01X60076Y57940D01*
G01X60078Y57983D01*
G01X60083Y58026D01*
G01X60091Y58069D01*
G01X60101Y58110D01*
G01X60111Y58153D01*
G01X60126Y58194D01*
G01X60142Y58232D01*
G01X60159Y58273D01*
G01X60200Y58349D01*
G01X60223Y58384D01*
G01X60248Y58420D01*
G01X60304Y58486D01*
G01X60335Y58516D01*
G01X60365Y58544D01*
G01X60398Y58572D01*
G01X60469Y58623D01*
G01X60505Y58646D01*
G01X60543Y58666D01*
G01X60584Y58684D01*
G01X60622Y58702D01*
G01X60662Y58717D01*
G01X60703Y58730D01*
G01X60746Y58740D01*
G01X60787Y58748D01*
G01X60830Y58755D01*
G01X60916Y58760D01*
G01X60960Y58760D01*
G01X61046Y58755D01*
G01X61087Y58748D01*
G01X61130Y58740D01*
G01X61170Y58730D01*
G01X61214Y58717D01*
G01X61254Y58702D01*
G01X61292Y58684D01*
G01X61333Y58666D01*
G01X61368Y58646D01*
G01X61407Y58623D01*
G01X61442Y58598D01*
G01X61475Y58572D01*
G01X61541Y58516D01*
G01X61572Y58486D01*
G01X61600Y58453D01*
G01X61625Y58420D01*
G01X61676Y58349D01*
G01X61716Y58273D01*
G01X61734Y58232D01*
G01X61749Y58194D01*
G01X61762Y58153D01*
G01X61775Y58110D01*
G01X61785Y58069D01*
G01X61793Y58026D01*
G01X61798Y57983D01*
G01X61800Y57940D01*
G01X61800Y57579D01*
G01X61798Y57536D01*
G01X61793Y57493D01*
G01X61785Y57450D01*
G01X61775Y57409D01*
G01X61762Y57366D01*
G01X61749Y57325D01*
G01X61734Y57287D01*
G01X61716Y57246D01*
G01X61676Y57170D01*
G01X61625Y57099D01*
G01X61600Y57066D01*
G01X61572Y57033D01*
G01X61541Y57003D01*
G01X61475Y56947D01*
G01X61442Y56921D01*
G01X61407Y56896D01*
G01X61368Y56873D01*
G01X61333Y56853D01*
G01X61292Y56835D01*
G01X61254Y56817D01*
G01X61214Y56802D01*
G01X61170Y56789D01*
G01X61130Y56779D01*
G01X61087Y56771D01*
G01X61046Y56764D01*
G01X60960Y56759D01*
G01X60916Y56759D01*
G37*
M00*
M02*
