G04 Layer: TopSilkLayer*
G04 EasyEDA v6.2.46, 2019-12-17T13:03:00+00:00*
G04 0172e0994fd644d79e33dd8747f588b4,932ed04fcfe14a16a0103060ae18c599,10*
G04 Gerber Generator version 0.2*
G04 Scale: 100 percent, Rotated: No, Reflected: No *
G04 Dimensions in millimeters *
G04 leading zeros omitted , absolute positions ,3 integer and 3 decimal *
%FSLAX33Y33*%
%MOMM*%
G90*
G71D02*

%ADD10C,0.254000*%
%ADD18C,0.203200*%
%ADD19C,0.202999*%

%LPD*%
G54D18*
G01X45339Y31090D02*
G01X42799Y31090D01*
G01X42799Y41250D01*
G01X45339Y41250D01*
G01X45339Y39345D01*
G54D19*
G01X45339Y31090D02*
G01X45339Y39345D01*
G54D18*
G01X36195Y19533D02*
G01X36195Y17018D01*
G01X31115Y17018D01*
G01X31115Y19533D01*
G01X36195Y19533D01*
G54D10*
G01X1875Y67932D02*
G01X1875Y16933D01*
G01X29874Y16933D01*
G01X29874Y67932D01*
G01X15875Y67932D01*
G01X1875Y67932D01*
G01X30988Y42393D02*
G01X36068Y42393D01*
G01X36068Y32233D01*
G01X30988Y32233D01*
G01X30988Y42393D01*
G01X31982Y72365D02*
G01X65982Y72365D01*
G01X65982Y51365D01*
G01X31982Y51365D01*
G01X31982Y72365D01*
G54D18*
G01X44323Y40361D02*
G01X44323Y39405D01*
G01X44323Y39405D02*
G01X44869Y39405D01*
G01X45168Y40361D02*
G01X45168Y39405D01*
G01X45168Y40361D02*
G01X45577Y40361D01*
G01X45714Y40315D01*
G01X45758Y40269D01*
G01X45803Y40178D01*
G01X45803Y40086D01*
G01X45758Y39997D01*
G01X45714Y39952D01*
G01X45577Y39906D01*
G01X45168Y39906D01*
G01X45486Y39906D02*
G01X45803Y39405D01*
G01X44323Y37947D02*
G01X44323Y37264D01*
G01X44368Y37130D01*
G01X44460Y37038D01*
G01X44594Y36992D01*
G01X44686Y36992D01*
G01X44823Y37038D01*
G01X44914Y37130D01*
G01X44960Y37264D01*
G01X44960Y37947D01*
G01X45260Y37947D02*
G01X45260Y36992D01*
G01X45260Y36992D02*
G01X45803Y36992D01*
G01X44069Y35407D02*
G01X44069Y34724D01*
G01X44114Y34590D01*
G01X44206Y34498D01*
G01X44340Y34452D01*
G01X44432Y34452D01*
G01X44569Y34498D01*
G01X44660Y34590D01*
G01X44706Y34724D01*
G01X44706Y35407D01*
G01X45006Y35407D02*
G01X45006Y34452D01*
G01X45006Y35407D02*
G01X45415Y35407D01*
G01X45549Y35362D01*
G01X45595Y35316D01*
G01X45641Y35225D01*
G01X45641Y35133D01*
G01X45595Y35044D01*
G01X45549Y34999D01*
G01X45415Y34953D01*
G01X45006Y34953D01*
G01X45323Y34953D02*
G01X45641Y34452D01*
G01X44196Y32867D02*
G01X44196Y31912D01*
G01X44196Y31912D02*
G01X44742Y31912D01*
G01X45041Y32867D02*
G01X45041Y31912D01*
G01X45041Y31912D02*
G01X45587Y31912D01*
G01X35224Y16345D02*
G01X35181Y16436D01*
G01X35090Y16528D01*
G01X34998Y16573D01*
G01X34815Y16573D01*
G01X34726Y16528D01*
G01X34635Y16436D01*
G01X34589Y16345D01*
G01X34544Y16210D01*
G01X34544Y15982D01*
G01X34589Y15844D01*
G01X34635Y15756D01*
G01X34726Y15664D01*
G01X34815Y15618D01*
G01X34998Y15618D01*
G01X35090Y15664D01*
G01X35181Y15756D01*
G01X35224Y15844D01*
G01X35224Y15982D01*
G01X34998Y15982D02*
G01X35224Y15982D01*
G01X35526Y16573D02*
G01X35526Y15618D01*
G01X35526Y16573D02*
G01X36161Y15618D01*
G01X36161Y16573D02*
G01X36161Y15618D01*
G01X36461Y16573D02*
G01X36461Y15618D01*
G01X36461Y16573D02*
G01X36779Y16573D01*
G01X36916Y16528D01*
G01X37007Y16436D01*
G01X37053Y16345D01*
G01X37099Y16210D01*
G01X37099Y15982D01*
G01X37053Y15844D01*
G01X37007Y15756D01*
G01X36916Y15664D01*
G01X36779Y15618D01*
G01X36461Y15618D01*
G01X31071Y16126D02*
G01X31026Y15992D01*
G01X30934Y15900D01*
G01X30797Y15855D01*
G01X30751Y15855D01*
G01X30617Y15900D01*
G01X30525Y15992D01*
G01X30480Y16126D01*
G01X30480Y16172D01*
G01X30525Y16309D01*
G01X30617Y16401D01*
G01X30751Y16446D01*
G01X30797Y16446D01*
G01X30934Y16401D01*
G01X31026Y16309D01*
G01X31071Y16126D01*
G01X31071Y15900D01*
G01X31026Y15674D01*
G01X30934Y15537D01*
G01X30797Y15491D01*
G01X30706Y15491D01*
G01X30571Y15537D01*
G01X30525Y15629D01*
G01X31371Y16446D02*
G01X31734Y15491D01*
G01X32097Y16446D02*
G01X31734Y15491D01*
G01X13350Y19933D02*
G01X13350Y18548D01*
G01X13441Y18271D01*
G01X13626Y18086D01*
G01X13903Y17995D01*
G01X14089Y17995D01*
G01X14366Y18086D01*
G01X14551Y18271D01*
G01X14642Y18548D01*
G01X14642Y19933D01*
G01X16545Y19656D02*
G01X16359Y19841D01*
G01X16083Y19933D01*
G01X15714Y19933D01*
G01X15437Y19841D01*
G01X15252Y19656D01*
G01X15252Y19473D01*
G01X15343Y19287D01*
G01X15437Y19193D01*
G01X15623Y19102D01*
G01X16177Y18917D01*
G01X16359Y18825D01*
G01X16453Y18734D01*
G01X16545Y18548D01*
G01X16545Y18271D01*
G01X16359Y18086D01*
G01X16083Y17995D01*
G01X15714Y17995D01*
G01X15437Y18086D01*
G01X15252Y18271D01*
G01X17154Y19933D02*
G01X17154Y17995D01*
G01X17154Y19933D02*
G01X17985Y19933D01*
G01X18264Y19841D01*
G01X18356Y19750D01*
G01X18447Y19564D01*
G01X18447Y19379D01*
G01X18356Y19193D01*
G01X18264Y19102D01*
G01X17985Y19011D01*
G01X17154Y19011D02*
G01X17985Y19011D01*
G01X18264Y18917D01*
G01X18356Y18825D01*
G01X18447Y18640D01*
G01X18447Y18363D01*
G01X18356Y18177D01*
G01X18264Y18086D01*
G01X17985Y17995D01*
G01X17154Y17995D01*
G01X30988Y34988D02*
G01X31351Y34033D01*
G01X31714Y34988D02*
G01X31351Y34033D01*
G01X32697Y34760D02*
G01X32651Y34851D01*
G01X32560Y34943D01*
G01X32468Y34988D01*
G01X32288Y34988D01*
G01X32197Y34943D01*
G01X32105Y34851D01*
G01X32059Y34760D01*
G01X32014Y34625D01*
G01X32014Y34397D01*
G01X32059Y34259D01*
G01X32105Y34171D01*
G01X32197Y34079D01*
G01X32288Y34033D01*
G01X32468Y34033D01*
G01X32560Y34079D01*
G01X32651Y34171D01*
G01X32697Y34259D01*
G01X33677Y34760D02*
G01X33634Y34851D01*
G01X33543Y34943D01*
G01X33451Y34988D01*
G01X33268Y34988D01*
G01X33180Y34943D01*
G01X33088Y34851D01*
G01X33042Y34760D01*
G01X32997Y34625D01*
G01X32997Y34397D01*
G01X33042Y34259D01*
G01X33088Y34171D01*
G01X33180Y34079D01*
G01X33268Y34033D01*
G01X33451Y34033D01*
G01X33543Y34079D01*
G01X33634Y34171D01*
G01X33677Y34259D01*
G01X31259Y37528D02*
G01X31170Y37483D01*
G01X31079Y37391D01*
G01X31033Y37300D01*
G01X30988Y37165D01*
G01X30988Y36937D01*
G01X31033Y36799D01*
G01X31079Y36711D01*
G01X31170Y36619D01*
G01X31259Y36573D01*
G01X31442Y36573D01*
G01X31534Y36619D01*
G01X31625Y36711D01*
G01X31668Y36799D01*
G01X31714Y36937D01*
G01X31714Y37165D01*
G01X31668Y37300D01*
G01X31625Y37391D01*
G01X31534Y37483D01*
G01X31442Y37528D01*
G01X31259Y37528D01*
G01X32014Y37528D02*
G01X32014Y36845D01*
G01X32059Y36711D01*
G01X32151Y36619D01*
G01X32288Y36573D01*
G01X32379Y36573D01*
G01X32514Y36619D01*
G01X32605Y36711D01*
G01X32651Y36845D01*
G01X32651Y37528D01*
G01X33268Y37528D02*
G01X33268Y36573D01*
G01X32951Y37528D02*
G01X33588Y37528D01*
G01X31668Y39840D02*
G01X31625Y39931D01*
G01X31534Y40023D01*
G01X31442Y40068D01*
G01X31259Y40068D01*
G01X31170Y40023D01*
G01X31079Y39931D01*
G01X31033Y39840D01*
G01X30988Y39705D01*
G01X30988Y39477D01*
G01X31033Y39339D01*
G01X31079Y39251D01*
G01X31170Y39159D01*
G01X31259Y39113D01*
G01X31442Y39113D01*
G01X31534Y39159D01*
G01X31625Y39251D01*
G01X31668Y39339D01*
G01X31668Y39477D01*
G01X31442Y39477D02*
G01X31668Y39477D01*
G01X31970Y40068D02*
G01X31970Y39113D01*
G01X31970Y40068D02*
G01X32605Y39113D01*
G01X32605Y40068D02*
G01X32605Y39113D01*
G01X32905Y40068D02*
G01X32905Y39113D01*
G01X32905Y40068D02*
G01X33223Y40068D01*
G01X33360Y40023D01*
G01X33451Y39931D01*
G01X33497Y39840D01*
G01X33543Y39705D01*
G01X33543Y39477D01*
G01X33497Y39339D01*
G01X33451Y39251D01*
G01X33360Y39159D01*
G01X33223Y39113D01*
G01X32905Y39113D01*
G01X62357Y58102D02*
G01X62720Y57147D01*
G01X63083Y58102D02*
G01X62720Y57147D01*
G01X64066Y57874D02*
G01X64020Y57965D01*
G01X63929Y58057D01*
G01X63837Y58102D01*
G01X63657Y58102D01*
G01X63566Y58057D01*
G01X63474Y57965D01*
G01X63428Y57874D01*
G01X63383Y57739D01*
G01X63383Y57511D01*
G01X63428Y57373D01*
G01X63474Y57285D01*
G01X63566Y57193D01*
G01X63657Y57147D01*
G01X63837Y57147D01*
G01X63929Y57193D01*
G01X64020Y57285D01*
G01X64066Y57373D01*
G01X65046Y57874D02*
G01X65003Y57965D01*
G01X64912Y58057D01*
G01X64820Y58102D01*
G01X64637Y58102D01*
G01X64549Y58057D01*
G01X64457Y57965D01*
G01X64411Y57874D01*
G01X64366Y57739D01*
G01X64366Y57511D01*
G01X64411Y57373D01*
G01X64457Y57285D01*
G01X64549Y57193D01*
G01X64637Y57147D01*
G01X64820Y57147D01*
G01X64912Y57193D01*
G01X65003Y57285D01*
G01X65046Y57373D01*
G01X62994Y60632D02*
G01X62903Y60724D01*
G01X62765Y60769D01*
G01X62585Y60769D01*
G01X62448Y60724D01*
G01X62357Y60632D01*
G01X62357Y60541D01*
G01X62402Y60449D01*
G01X62448Y60406D01*
G01X62539Y60360D01*
G01X62811Y60269D01*
G01X62903Y60223D01*
G01X62948Y60178D01*
G01X62994Y60086D01*
G01X62994Y59952D01*
G01X62903Y59860D01*
G01X62765Y59814D01*
G01X62585Y59814D01*
G01X62448Y59860D01*
G01X62357Y59952D01*
G01X63974Y60541D02*
G01X63929Y60632D01*
G01X63837Y60724D01*
G01X63748Y60769D01*
G01X63566Y60769D01*
G01X63474Y60724D01*
G01X63383Y60632D01*
G01X63339Y60541D01*
G01X63294Y60406D01*
G01X63294Y60178D01*
G01X63339Y60040D01*
G01X63383Y59952D01*
G01X63474Y59860D01*
G01X63566Y59814D01*
G01X63748Y59814D01*
G01X63837Y59860D01*
G01X63929Y59952D01*
G01X63974Y60040D01*
G01X64274Y60769D02*
G01X64274Y59814D01*
G01X64912Y60769D02*
G01X64274Y60132D01*
G01X64503Y60360D02*
G01X64912Y59814D01*
G01X62484Y63436D02*
G01X62484Y62481D01*
G01X62484Y63436D02*
G01X62801Y63436D01*
G01X62938Y63391D01*
G01X63030Y63299D01*
G01X63075Y63208D01*
G01X63121Y63073D01*
G01X63121Y62845D01*
G01X63075Y62707D01*
G01X63030Y62619D01*
G01X62938Y62527D01*
G01X62801Y62481D01*
G01X62484Y62481D01*
G01X63738Y63436D02*
G01X63738Y62481D01*
G01X63421Y63436D02*
G01X64056Y63436D01*
G01X63040Y65532D02*
G01X62994Y65623D01*
G01X62903Y65715D01*
G01X62811Y65761D01*
G01X62628Y65761D01*
G01X62540Y65715D01*
G01X62448Y65623D01*
G01X62402Y65532D01*
G01X62357Y65397D01*
G01X62357Y65169D01*
G01X62402Y65032D01*
G01X62448Y64943D01*
G01X62540Y64851D01*
G01X62628Y64805D01*
G01X62811Y64805D01*
G01X62903Y64851D01*
G01X62994Y64943D01*
G01X63040Y65032D01*
G01X63040Y65169D01*
G01X62811Y65169D02*
G01X63040Y65169D01*
G01X63340Y65761D02*
G01X63340Y64805D01*
G01X63340Y65761D02*
G01X63975Y64805D01*
G01X63975Y65761D02*
G01X63975Y64805D01*
G01X64274Y65761D02*
G01X64274Y64805D01*
G01X64274Y65761D02*
G01X64594Y65761D01*
G01X64729Y65715D01*
G01X64820Y65623D01*
G01X64866Y65532D01*
G01X64912Y65397D01*
G01X64912Y65169D01*
G01X64866Y65032D01*
G01X64820Y64943D01*
G01X64729Y64851D01*
G01X64594Y64805D01*
G01X64274Y64805D01*
G01X32766Y55816D02*
G01X32766Y54861D01*
G01X32766Y55816D02*
G01X33174Y55816D01*
G01X33312Y55771D01*
G01X33357Y55725D01*
G01X33403Y55634D01*
G01X33403Y55542D01*
G01X33357Y55453D01*
G01X33312Y55407D01*
G01X33174Y55362D01*
G01X32766Y55362D02*
G01X33174Y55362D01*
G01X33312Y55316D01*
G01X33357Y55270D01*
G01X33403Y55179D01*
G01X33403Y55044D01*
G01X33357Y54953D01*
G01X33312Y54907D01*
G01X33174Y54861D01*
G01X32766Y54861D01*
G01X34112Y55679D02*
G01X34112Y54861D01*
G01X33703Y55270D02*
G01X34521Y55270D01*
G01X32639Y58483D02*
G01X32639Y57528D01*
G01X32639Y58483D02*
G01X33047Y58483D01*
G01X33185Y58438D01*
G01X33230Y58392D01*
G01X33276Y58301D01*
G01X33276Y58209D01*
G01X33230Y58120D01*
G01X33185Y58074D01*
G01X33047Y58029D01*
G01X32639Y58029D02*
G01X33047Y58029D01*
G01X33185Y57983D01*
G01X33230Y57937D01*
G01X33276Y57846D01*
G01X33276Y57711D01*
G01X33230Y57620D01*
G01X33185Y57574D01*
G01X33047Y57528D01*
G01X32639Y57528D01*
G01X33576Y57937D02*
G01X34394Y57937D01*
G01X33002Y60896D02*
G01X32639Y59941D01*
G01X33002Y60896D02*
G01X33365Y59941D01*
G01X32776Y60259D02*
G01X33230Y60259D01*
G01X34076Y60759D02*
G01X34076Y59941D01*
G01X33665Y60350D02*
G01X34485Y60350D01*
G01X33002Y63563D02*
G01X32639Y62608D01*
G01X33002Y63563D02*
G01X33365Y62608D01*
G01X32776Y62926D02*
G01X33230Y62926D01*
G01X33665Y63017D02*
G01X34485Y63017D01*
G01X32639Y66230D02*
G01X32639Y65275D01*
G01X32639Y66230D02*
G01X33230Y66230D01*
G01X32639Y65776D02*
G01X33002Y65776D01*
G01X32639Y65275D02*
G01X33230Y65275D01*
G01X33530Y65684D02*
G01X34348Y65684D01*
G01X32639Y68681D02*
G01X32639Y67726D01*
G01X32639Y68681D02*
G01X33230Y68681D01*
G01X32639Y68227D02*
G01X33002Y68227D01*
G01X32639Y67726D02*
G01X33230Y67726D01*
G01X33939Y68544D02*
G01X33939Y67726D01*
G01X33530Y68135D02*
G01X34348Y68135D01*
G01X44577Y54600D02*
G01X44577Y52662D01*
G01X45869Y54600D02*
G01X45869Y52662D01*
G01X44577Y53678D02*
G01X45869Y53678D01*
G01X46479Y54600D02*
G01X47772Y52662D01*
G01X47772Y54600D02*
G01X46479Y52662D01*
G01X49674Y54600D02*
G01X48752Y52662D01*
G01X48381Y54600D02*
G01X49674Y54600D01*
G01X50284Y54231D02*
G01X50469Y54323D01*
G01X50746Y54600D01*
G01X50746Y52662D01*
G01X51356Y54231D02*
G01X51541Y54323D01*
G01X51818Y54600D01*
G01X51818Y52662D01*
G54D10*
G75*
G01X62929Y53696D02*
G03X62929Y53696I-1397J0D01*
G01*
G75*
G01X62929Y69571D02*
G03X62929Y69571I-1397J0D01*
G01*
M00*
M02*
